<?xml version="1.0" standalone="no"?>
<!DOCTYPE svg PUBLIC "-//W3C//DTD SVG 1.1//EN" "http://www.w3.org/Graphics/SVG/1.1/DTD/svg11.dtd" >
<svg xmlns="http://www.w3.org/2000/svg">
<metadata></metadata>
<defs>
<font id="hellschreiber_sansLtIt" horiz-adv-x="1105" >
<font-face units-per-em="2048" ascent="1536" descent="-512" />
<missing-glyph horiz-adv-x="489" />
<glyph unicode="&#xfb01;" horiz-adv-x="1191" d="M-279 -365q0 19 11.5 32.5t31.5 13.5q17 0 54 -15q87 -33 141 -33q134 0 170 222l164 1044q3 19 -1.5 25t-23.5 6h-67q-74 0 -74 39q0 55 90 55h66q18 0 24.5 6t9.5 25l23 143q52 315 317 315q63 0 179 -38q59 -20 59 -56q0 -18 -11.5 -30.5t-31.5 -12.5q-22 0 -61 17 q-82 32 -142 32q-45 0 -80 -14.5t-56.5 -36t-36.5 -53.5t-22 -59t-12 -60l-24 -147q-2 -19 3.5 -25t24.5 -6h564q20 0 24.5 -6.5t1.5 -24.5l-131 -825q-10 -64 13.5 -92t66.5 -25q22 2 29 -1t10 -21l2 -11q4 -15 0 -23t-20 -15q-29 -11 -54 -11q-21 0 -41 5t-44.5 19t-38 40 t-21.5 68t4 102l109 698q3 19 -1.5 25t-23.5 6l-463 -2q-19 0 -26.5 -6t-10.5 -25l-166 -1042q-28 -174 -96.5 -245t-175.5 -71q-59 0 -178 39q-58 20 -58 55zM965 1327l20 125q3 18 11 24.5t26 6.5h61q17 0 23.5 -7t3.5 -24l-23 -125q-3 -19 -10 -25t-24 -6h-64 q-17 0 -22 6t-2 25z" />
<glyph unicode="&#xfb02;" horiz-adv-x="1120" d="M-279 -365q0 19 11.5 32.5t31.5 13.5q17 0 54 -15q87 -33 141 -33q134 0 170 222l164 1044q3 19 -1.5 25t-23.5 6h-67q-74 0 -74 39q0 55 90 55h66q18 0 24.5 6t9.5 25l23 143q52 315 317 315q69 0 198.5 -18.5t174.5 -32.5q19 -5 24.5 -12.5t2.5 -26.5l-203 -1257 q-10 -63 13.5 -91.5t66.5 -25.5q21 2 28.5 -1t10.5 -19l2 -11q3 -16 -0.5 -23.5t-20.5 -14.5q-29 -11 -53 -11q-18 0 -34.5 3t-37 12t-35 25t-27.5 42t-14 63.5t5 88.5l188 1145q3 18 -2 25t-24 13q-39 12 -135.5 25.5t-135.5 13.5q-45 0 -80 -14.5t-56.5 -36t-36.5 -53.5 t-22 -59t-12 -60l-24 -147q-2 -19 3.5 -25t24.5 -6h175q73 0 73 -39q0 -55 -90 -55h-172q-19 0 -26.5 -6t-10.5 -25l-166 -1042q-28 -174 -96.5 -245t-175.5 -71q-59 0 -178 39q-58 20 -58 55z" />
<glyph horiz-adv-x="2048" />
<glyph horiz-adv-x="2048" />
<glyph unicode="&#xd;" horiz-adv-x="2048" />
<glyph unicode=" "  horiz-adv-x="489" />
<glyph unicode="&#x09;" horiz-adv-x="489" />
<glyph unicode="&#xa0;" horiz-adv-x="489" />
<glyph unicode="!" horiz-adv-x="702" d="M168 31l18 106q3 18 11 24.5t26 6.5h86q17 0 23.5 -7t3.5 -24l-19 -106q-3 -19 -10 -25t-24 -6h-86q-19 0 -25.5 6.5t-3.5 24.5zM246 385l135 1030q3 18 10 24.5t25 6.5h88q19 0 25 -6.5t3 -24.5l-194 -1030q-2 -17 -9 -24t-26 -7h-29q-18 0 -23 6.5t-5 24.5z" />
<glyph unicode="&#x22;" horiz-adv-x="651" d="M116.5 1101.5q0.5 11.5 2.5 37.5l18 262q1 16 3 23.5t11 14.5t25 7h74q24 0 28.5 -13t-2.5 -32l-65 -262q-2 -6 -4.5 -18t-4 -17t-4 -14.5t-4.5 -13.5t-5 -10.5t-6.5 -9.5t-8 -6.5t-10 -4.5t-12.5 -1q-15 0 -23 6.5t-10.5 23t-2 28zM384.5 1101.5q0.5 11.5 2.5 37.5 l19 262q1 13 2 18.5t4.5 13t11 10.5t20.5 3h74q24 0 29 -13t-2 -32l-66 -262q-2 -6 -4.5 -18t-4 -17t-4 -14.5t-4.5 -13.5t-5 -10.5t-6.5 -9.5t-8 -6.5t-10 -4.5t-12.5 -1q-15 0 -23 6.5t-10.5 23t-2 28z" />
<glyph unicode="#" horiz-adv-x="1226" d="M10 539q0 55 88 55h213l62 319h-193q-90 0 -90 56q0 55 90 55h213l64 342q8 39 24 58.5t45 19.5q41 0 41 -60q0 -8 -4 -36l-61 -324h321l64 342q8 40 23.5 59t45.5 19q41 0 41 -60q0 -8 -4 -36l-59 -324h194q89 0 89 -55q0 -56 -89 -56h-215l-61 -319h197q88 0 88 -55 q0 -56 -90 -56h-216l-75 -403q-7 -40 -21 -60t-47 -20q-43 0 -43 61q0 9 4 37l72 385h-320l-75 -403q-8 -41 -23.5 -60.5t-46.5 -19.5q-41 0 -41 61q0 9 4 37l72 385h-193q-88 0 -88 56zM422 594h321l60 319h-322z" />
<glyph unicode="$" horiz-adv-x="1112" d="M94 242q0 15 11.5 28t29.5 13q24 0 51 -39q103 -148 252 -174l99 620q-50 35 -84 61.5t-75 66.5t-65 79t-40.5 91t-16.5 110q0 149 109 247t290 99l41 254q5 31 39 31h17q18 0 23.5 -6.5t2.5 -24.5l-41 -258q146 -19 250 -119q33 -29 33 -59q0 -16 -12.5 -28.5 t-30.5 -12.5q-20 0 -51 24q-90 86 -205 101l-92 -586q41 -27 64 -43t59.5 -44.5t57.5 -50.5t47 -55t40 -64.5t23.5 -72t9.5 -84.5q0 -181 -116.5 -278t-309.5 -99l-35 -215q-3 -19 -9.5 -24.5t-25.5 -5.5h-20q-19 0 -24.5 6t-2.5 24l35 223q-98 17 -178.5 71t-126.5 132 q-23 38 -23 62zM365 1096q0 -90 49 -155t141 -130l84 539q-121 -4 -197.5 -77t-76.5 -177zM518 61q140 3 222.5 80.5t82.5 212.5q0 85 -54 148.5t-159 136.5z" />
<glyph unicode="%" horiz-adv-x="1648" d="M172 1061q0 74 25.5 148.5t70.5 135.5t116 99.5t153 38.5q121 0 192.5 -79.5t71.5 -207.5q0 -73 -24 -148t-67 -139t-112.5 -104.5t-151.5 -40.5q-119 0 -196.5 83.5t-77.5 213.5zM236 15q3 6 12 18l1079 1382q15 20 24 25.5t29 5.5h41q24 0 25.5 -8t-12.5 -23 l-1080 -1382q-17 -22 -27 -27.5t-32 -5.5h-35q-17 0 -22 4.5t-2 10.5zM285 1067q0 -92 41.5 -153.5t117.5 -61.5q72 0 129.5 55t86 129.5t28.5 147.5q0 90 -41.5 150.5t-116.5 60.5q-72 0 -130 -54t-86.5 -128t-28.5 -146zM891 256q0 74 25 148.5t70.5 135.5t116 99.5 t152.5 38.5q121 0 193 -79.5t72 -207.5q0 -73 -24 -148t-67 -139t-112.5 -104.5t-151.5 -40.5q-119 0 -196.5 83.5t-77.5 213.5zM1004 262q0 -92 41.5 -153.5t117.5 -61.5q72 0 129.5 55t86 129.5t28.5 147.5q0 90 -41.5 150.5t-116.5 60.5q-72 0 -130 -54t-86.5 -128 t-28.5 -146z" />
<glyph unicode="&#x26;" horiz-adv-x="1218" d="M70 307q0 163 97 295t247 180q-97 156 -97 287q0 185 125 299.5t318 114.5q78 0 161.5 -24.5t145.5 -76.5q49 -39 49 -67q0 -14 -10.5 -25.5t-26.5 -11.5q-19 0 -65 27q-130 81 -248 81q-83 0 -149.5 -27.5t-105.5 -73t-59 -97t-20 -105.5q0 -41 10 -83.5t33 -90t36 -71 t42 -72.5l252 -424l207 315q12 19 21.5 25t27.5 6h49q19 0 23 -6.5t-7 -26.5l-268 -405l141 -219q11 -19 7.5 -25t-21.5 -6h-74q-16 0 -26 7.5t-21 25.5l-71 110q-77 -92 -160 -138t-195 -46q-157 0 -262.5 91.5t-105.5 256.5zM190 330q0 -122 76 -198.5t185 -76.5 q50 0 92 14t78.5 45t59 56t56.5 70l-270 454q-125 -33 -201 -135t-76 -229z" />
<glyph unicode="'" horiz-adv-x="380" d="M108.5 1101.5q0.5 10.5 2.5 37.5l18 262q1 16 3 23.5t11 14.5t25 7h74q24 0 28.5 -13t-2.5 -32l-65 -262q-16 -65 -25 -78q-12 -17 -35 -17q-15 0 -23 6.5t-10 23.5t-1.5 27.5z" />
<glyph unicode="(" horiz-adv-x="542" d="M92 279q0 131 22.5 284.5t65.5 312.5t118.5 303.5t170.5 231.5q38 35 63 35q13 0 25 -11.5t12 -25.5q0 -26 -39 -68q-108 -119 -184.5 -311.5t-109.5 -386t-33 -375.5q0 -300 86 -448q22 -36 22 -62q0 -14 -11.5 -26.5t-27.5 -12.5q-27 0 -51 31q-61 78 -95 217t-34 312z " />
<glyph unicode=")" horiz-adv-x="542" d="M-27 -248q0 26 39 68q108 119 184.5 312t110 386.5t33.5 374.5q0 300 -86 448q-23 38 -23 62q0 17 12 29t27 12q26 0 52 -33q61 -78 95 -216.5t34 -311.5q0 -130 -22.5 -283.5t-65.5 -313.5t-118.5 -304.5t-170.5 -231.5q-40 -37 -64 -37q-12 0 -24.5 12.5t-12.5 26.5z " />
<glyph unicode="*" horiz-adv-x="909" d="M98 1161q0 20 16.5 34.5t39.5 14.5q24 0 45 -8l213 -74l37 236q13 82 63 82t37 -82l-37 -236l233 74q27 8 50 8q41 0 41 -36q0 -48 -72 -70l-238 -74l115 -188q18 -30 18 -54q0 -18 -14.5 -33.5t-34.5 -15.5q-35 0 -59 41l-113 195l-176 -195q-38 -41 -69 -41 q-15 0 -26 11t-11 26q0 26 37 66l172 188l-213 74q-54 18 -54 57z" />
<glyph unicode="+" horiz-adv-x="1163" d="M115 508l4 35q3 18 11 24t28 6h370l66 420q3 18 11.5 24.5t27.5 6.5h41q19 0 24 -6t2 -25l-65 -420h385q19 0 24.5 -6t2.5 -24l-5 -35q-3 -17 -11 -24t-27 -7h-386l-69 -446q-3 -18 -11 -24.5t-26 -6.5h-41q-19 0 -25.5 7t-3.5 24l70 446h-371q-19 0 -24 6t-2 25z" />
<glyph unicode="," horiz-adv-x="505" d="M94 -166q0 11 23 74l104 256q7 18 18 24.5t35 6.5h82q40 0 23 -35l-182 -293q-22 -35 -36 -49.5t-30 -14.5q-17 0 -27 9t-10 22z" />
<glyph unicode="-" horiz-adv-x="825" d="M102 514l7 37q3 19 10 25t24 6h541q18 0 24 -6.5t3 -24.5l-6 -37q-3 -17 -10.5 -24t-24.5 -7h-541q-17 0 -23.5 7t-3.5 24z" />
<glyph unicode="." horiz-adv-x="534" d="M119 31l18 106q3 18 11 24.5t26 6.5h86q17 0 23.5 -7t3.5 -24l-19 -106q-3 -18 -10 -24.5t-25 -6.5h-86q-19 0 -25 6.5t-3 24.5z" />
<glyph unicode="/" horiz-adv-x="741" d="M-44.5 -20q-5.5 7 3.5 24l743 1454q9 17 21 24t35 7h30q23 0 28.5 -7t-3.5 -24l-743 -1452q-9 -19 -21 -26t-35 -7h-30q-23 0 -28.5 7z" />
<glyph unicode="0" d="M47 522q0 173 46.5 345t126 308.5t196 222t246.5 85.5q197 0 300 -147t103 -396q0 -76 -10 -162t-33.5 -182t-57 -186t-84.5 -172.5t-113 -144t-145 -98t-178 -36.5q-122 0 -212.5 71.5t-137.5 198.5t-47 293zM168 504q0 -129 27.5 -225t92.5 -156t163 -60 q86 0 160.5 44.5t126.5 118.5t92.5 165.5t64 192t35.5 191.5t12 169q0 128 -27 222t-92.5 153t-165.5 59q-91 0 -171.5 -57t-137 -149t-98.5 -207.5t-62 -234t-20 -226.5z" />
<glyph unicode="1" horiz-adv-x="1103" d="M336 1288q0 42 74 70l325 127q24 9 28 3.5t-1 -34.5l-225 -1423q-3 -17 -10.5 -24t-24.5 -7h-49q-19 0 -24.5 7t-2.5 24l201 1261q5 33 1.5 37.5t-28.5 -4.5l-174 -61q-32 -13 -53 -13q-14 0 -25.5 9.5t-11.5 27.5z" />
<glyph unicode="2" d="M33 31l6 41q3 16 9 24.5t24 24.5l628 643q41 42 57.5 59.5t53 58.5t53.5 69t38.5 68t30.5 80t9 83q0 89 -55.5 149t-184.5 60q-157 0 -260 -119q-34 -37 -61 -37q-16 0 -29.5 12.5t-13.5 30.5q0 24 29 61q59 71 145.5 113.5t194.5 42.5q171 0 265.5 -81t94.5 -220 q0 -59 -19.5 -119.5t-45 -106.5t-75 -106.5t-83 -95.5t-96.5 -98l-560 -568h662q18 0 24 -6t3 -24l-7 -39q-3 -19 -10 -25t-26 -6h-771q-19 0 -26 6.5t-4 24.5z" />
<glyph unicode="3" d="M41 178q0 21 15 36t38 15q28 0 56 -41q90 -127 292 -127q170 0 295 115t125 289q0 70 -27 124.5t-73 86t-102 47.5t-119 16q-74 0 -74 52q0 51 90 51q148 0 255.5 92t107.5 240q0 56 -20.5 97t-56 63.5t-77.5 33t-92 10.5q-130 0 -252 -75q-36 -23 -60 -23q-14 0 -26 11 t-12 28q0 34 51 70q133 94 315 94q50 0 96.5 -7.5t94.5 -27.5t83 -51.5t57.5 -83.5t22.5 -119q0 -141 -78 -247.5t-225 -155.5q108 -30 175 -108t67 -204q0 -144 -69.5 -263t-193.5 -188t-278 -69q-120 0 -224.5 40t-154.5 116q-22 31 -22 63z" />
<glyph unicode="4" d="M37 377l2 18q3 31 20 54l795 966q11 13 15.5 17t13.5 9t20 5h82q16 0 19.5 -7t-0.5 -24l-154 -973h111q73 0 73 -41q0 -32 -22 -44.5t-66 -12.5h-110l-52 -313q-3 -18 -10 -24.5t-24 -6.5h-50q-18 0 -23.5 6.5t-2.5 24.5l51 313h-655q-21 0 -27.5 6t-5.5 27zM186 442h553 l146 863z" />
<glyph unicode="5" d="M55 186q0 22 17 39t37 17q25 0 55 -43q87 -127 297 -127q88 0 164 39.5t125.5 103t77.5 142t28 157.5q0 132 -83.5 207.5t-229.5 75.5q-149 0 -291 -66q-20 -9 -28 -1.5t-3 30.5l105 653q3 20 9.5 26.5t24.5 6.5h598q74 0 74 -43q0 -60 -90 -60h-489q-19 0 -25.5 -5.5 t-9.5 -24.5l-72 -445q102 31 209 31q91 0 166.5 -22.5t134 -67t91 -118.5t32.5 -171q0 -236 -145 -393.5t-365 -157.5q-130 0 -237.5 45t-159.5 125q-17 27 -17 47z" />
<glyph unicode="6" d="M43 408q0 54 6.5 108.5t12.5 82.5l6 28q8 41 19.5 84.5t32 107.5t45.5 123.5t61.5 127.5t78.5 125.5t98.5 111.5t119.5 92t143 61t168 23q93 0 186 -27q63 -18 63 -59q0 -20 -13.5 -32.5t-35.5 -12.5q-25 0 -81 13t-113 13q-87 0 -166 -28.5t-138.5 -74t-111.5 -110 t-87.5 -128t-66 -136t-47.5 -127t-30 -108.5h8q55 83 154.5 136.5t195.5 53.5q175 0 276 -100.5t101 -263.5q0 -102 -36 -198t-99.5 -170.5t-160 -119.5t-208.5 -45q-77 0 -138.5 19.5t-102 54t-69 77t-43.5 95.5t-21.5 101.5t-6.5 101.5zM156 340q0 -121 69 -200t199 -79 q163 0 270 125t107 297q0 119 -65.5 195t-198.5 76q-160 0 -270.5 -123t-110.5 -291z" />
<glyph unicode="7" d="M134.5 5.5q-2.5 5.5 8.5 25.5l775 1310h-742q-17 0 -22 6.5t-2 24.5l6 43q3 18 11 24.5t26 6.5h841q17 0 20.5 -6t0.5 -25l-4 -24q-5 -27 -21 -54l-749 -1306q-13 -23 -19.5 -27t-25.5 -4h-82q-19 0 -21.5 5.5z" />
<glyph unicode="8" d="M53 301q0 159 101.5 279t265.5 157q-97 29 -147 110.5t-50 182.5q0 118 59 222t164.5 167.5t231.5 63.5q160 0 261 -84.5t101 -237.5q0 -148 -82.5 -264.5t-228.5 -159.5q116 -30 184 -103.5t68 -193.5q0 -209 -146.5 -345t-369.5 -136q-181 0 -296.5 92t-115.5 250z M182 307q0 -112 72.5 -176.5t214.5 -64.5q161 0 273 102.5t112 267.5q0 119 -74.5 184.5t-212.5 65.5q-160 0 -272.5 -107.5t-112.5 -271.5zM342 1024q0 -113 66.5 -173t175.5 -60q139 0 236.5 101t97.5 251q0 109 -67.5 172t-176.5 63q-139 0 -235.5 -104t-96.5 -250z" />
<glyph unicode="9" d="M29 45q0 20 13.5 32.5t35.5 12.5q11 0 47 -8q71 -19 147 -19q87 0 166.5 28.5t138.5 74t111.5 110t88 128t66 136.5t47.5 127.5t30 108.5h-9q-55 -83 -154.5 -136.5t-195.5 -53.5q-175 0 -276 100.5t-101 263.5q0 101 36.5 197t101 170.5t160.5 120t208 45.5 q92 0 162 -27.5t111 -70t66.5 -102.5t34.5 -116t9 -120q0 -56 -6.5 -114t-12.5 -88l-7 -30q-8 -41 -19.5 -84.5t-32 -107.5t-45.5 -123.5t-61.5 -127.5t-78.5 -125.5t-98.5 -111.5t-119.5 -92t-143 -61t-168 -23q-96 0 -189 27q-63 18 -63 59zM311 958q0 -119 65.5 -194.5 t198.5 -75.5q160 0 270.5 122.5t110.5 289.5q0 120 -69.5 200t-196.5 80q-107 0 -195 -59.5t-136 -156t-48 -206.5z" />
<glyph unicode=":" horiz-adv-x="532" d="M113 31l18 106q3 18 11 24.5t26 6.5h86q17 0 23.5 -7t3.5 -24l-19 -106q-3 -18 -10 -24.5t-25 -6.5h-86q-19 0 -25 6.5t-3 24.5zM242 885l18 106q3 18 11 24.5t26 6.5h86q17 0 23.5 -7t3.5 -24l-19 -106q-3 -18 -10 -24.5t-25 -6.5h-86q-19 0 -25 6.5t-3 24.5z" />
<glyph unicode=";" horiz-adv-x="532" d="M27 -166q0 8 0.5 13.5t2.5 12t4 11.5t6.5 16t8.5 21l105 256q7 18 18 24.5t35 6.5h82q39 0 22 -35l-182 -293q-22 -35 -36 -49.5t-30 -14.5q-17 0 -26.5 9t-9.5 22zM242 885l18 106q3 18 11 24.5t26 6.5h86q17 0 23.5 -7t3.5 -24l-19 -106q-3 -18 -10 -24.5t-25 -6.5h-86 q-19 0 -25 6.5t-3 24.5z" />
<glyph unicode="&#x3c;" horiz-adv-x="1142" d="M92 406v67q0 18 6 24.5t25 14.5l893 391q20 8 27.5 0.5t7.5 -31.5v-47q0 -18 -6.5 -24.5t-26.5 -14.5l-801 -344v-8l801 -344q20 -8 26.5 -14.5t6.5 -22.5v-47q0 -25 -7.5 -32t-27.5 1l-893 392q-19 8 -25 14.5t-6 24.5z" />
<glyph unicode="=" horiz-adv-x="1142" d="M94 385l6 35q3 18 10 24.5t25 6.5h887q17 0 23.5 -7t3.5 -24l-7 -35q-3 -19 -10 -25t-24 -6h-887q-19 0 -24.5 6t-2.5 25zM137 653l6 37q3 19 10 26t25 7h887q18 0 24 -7.5t3 -25.5l-7 -39q-3 -17 -11 -23.5t-25 -6.5h-887q-18 0 -23 6.5t-2 25.5z" />
<glyph unicode="&#x3e;" horiz-adv-x="1140" d="M92 6v47q0 16 6 22.5t25 14.5l803 344v8l-803 344q-19 8 -25 14.5t-6 24.5v47q0 24 7.5 31.5t27.5 -0.5l891 -391q19 -8 25 -14.5t6 -24.5v-67q0 -18 -6 -24.5t-25 -14.5l-891 -392q-20 -8 -27.5 -1t-7.5 32z" />
<glyph unicode="?" horiz-adv-x="1005" d="M188 1186l27 166q4 27 41 49q133 82 289 82q45 0 89.5 -8t93.5 -31t85 -58.5t60 -96t24 -138.5q0 -189 -110 -326t-304 -161q-19 -2 -25 -7t-9 -24l-39 -240q-3 -19 -10.5 -25t-26.5 -6h-47q-19 0 -24.5 6t-2.5 25l53 330q1 17 8.5 23t26.5 8q170 8 277.5 111t107.5 276 q0 66 -22 114.5t-57.5 74.5t-74 38t-79.5 12q-105 0 -193 -49q-34 -16 -39 -45l-16 -100q-10 -82 -64 -82q-52 0 -39 82zM229 31l19 106q3 18 11 24.5t26 6.5h86q17 0 23 -7t3 -24l-18 -106q-3 -18 -10 -24.5t-25 -6.5h-86q-19 0 -25.5 6.5t-3.5 24.5z" />
<glyph unicode="@" horiz-adv-x="1685" d="M84 729q0 204 101.5 378t273.5 275t372 101q190 0 347.5 -80.5t249.5 -225.5t92 -325q0 -150 -58.5 -277t-157 -199.5t-212.5 -72.5q-25 0 -50 7.5t-49 24.5t-34.5 50t-0.5 78h-6q-95 -154 -245 -154q-124 0 -198.5 94t-74.5 248q0 67 15.5 139.5t48.5 144.5t79 129 t113.5 92.5t145.5 35.5q153 0 202 -154h9l16 107q2 22 31 22h32q15 0 19.5 -5.5t1.5 -20.5l-103 -670q-4 -31 3 -51t22 -27.5t25 -9.5t20 -2q89 0 165.5 71t119.5 181t43 225q0 123 -52.5 229.5t-138 177.5t-194 111.5t-221.5 40.5q-183 0 -339 -96t-246.5 -257t-90.5 -347 q0 -146 59 -275.5t154.5 -218.5t218 -140.5t248.5 -51.5q159 0 303 77t239 209q1 2 4 5.5t4 4.5t3 4t3 3.5t3.5 2t4.5 2t5 1t6 0.5h45q30 0 13 -25q-97 -161 -269.5 -255.5t-363.5 -94.5q-159 0 -300 60t-240.5 162.5t-157.5 243.5t-58 298zM524 639q0 -115 45.5 -184.5 t137.5 -69.5q64 0 117.5 32t88.5 83t59.5 115.5t35 128t10.5 122.5q0 114 -45 183t-137 69q-63 0 -116.5 -32t-89 -82.5t-60 -115t-35.5 -127.5t-11 -122z" />
<glyph unicode="A" horiz-adv-x="1372" d="M66 7q-2 3 -2 7q0 7 6 17l739 1384q2 3 5.5 9t4.5 8t4.5 6t6 5t7.5 2t11 1h65q16 0 22 -7t9 -24l307 -1384q1 -5 1 -9q0 -10 -6 -15q-8 -7 -32 -7h-34q-38 0 -43 31l-97 448h-614l-238 -448q-15 -31 -53 -31h-39q-24 0 -30 7zM479 582h539l-152 737h-6z" />
<glyph unicode="B" horiz-adv-x="1161" d="M84 31l223 1384q3 19 10.5 25t26.5 6h307q54 0 104.5 -7t108.5 -28.5t100 -56t70.5 -95.5t28.5 -141q0 -139 -82.5 -229t-230.5 -125v-4q119 -22 194.5 -112.5t75.5 -211.5q0 -90 -30 -163.5t-81.5 -123.5t-122.5 -84t-150.5 -49.5t-168.5 -15.5h-356q-19 0 -25 7 q-4 5 -3 13q0 5 1 11zM213 131q-1 -5 0 -9q-1 -12 3 -16q6 -6 24 -6h243q77 2 149.5 22.5t134 59.5t99 104.5t37.5 147.5q0 126 -89.5 196t-215.5 70h-264q-17 0 -24.5 -6.5t-10.5 -23.5zM326 831q-1 -7 -1 -12q0 -9 3 -13q5 -6 22 -5h215q71 0 136.5 17.5t121.5 52.5 t89.5 95.5t33.5 137.5q0 121 -76 180t-204 59h-230q-18 0 -25 -6t-10 -24z" />
<glyph unicode="C" horiz-adv-x="1236" d="M72 561q0 141 32 277t94 252t145 204.5t192 138.5t229 50q137 0 246.5 -47t175.5 -129q24 -30 24 -64q0 -19 -13.5 -31t-31.5 -12q-33 0 -59 33q-56 67 -145.5 106t-190.5 39q-109 0 -203.5 -49.5t-161 -132t-114 -189.5t-70 -221.5t-22.5 -228.5q0 -105 21.5 -192.5 t64 -156t112.5 -107t162 -38.5q116 0 218.5 43t176.5 113q36 33 68 33q19 0 31 -13.5t12 -29.5q0 -35 -45 -76q-83 -81 -204 -127.5t-255 -46.5q-230 0 -359.5 165.5t-129.5 436.5z" />
<glyph unicode="D" horiz-adv-x="1275" d="M84 31l217 1384q3 19 10.5 25t26.5 6h240q117 0 213.5 -21t162 -56t115.5 -84.5t78.5 -100t46 -110.5t23.5 -109t6 -101q0 -180 -57.5 -337t-164 -274.5t-268.5 -185t-360 -67.5h-264q-17 0 -23 7q-4 5 -3 13q0 5 1 11zM215 131q-1 -6 -1 -11q0 -9 4 -13q6 -7 22 -7h108 q221 3 392.5 97t266.5 266t95 395q0 244 -140 364.5t-401 120.5h-123q-19 0 -26.5 -6t-10.5 -24z" />
<glyph unicode="E" horiz-adv-x="1048" d="M84 31l219 1382q3 19 10.5 26t26.5 7h719q19 0 25 -7q4 -5 4 -14q0 -5 -1 -10l-6 -37q-3 -18 -11 -25t-26 -7h-608q-19 0 -26.5 -7t-10.5 -26l-77 -498q-3 -19 1.5 -25t22.5 -6h416q19 0 25.5 -6.5t3.5 -23.5l-7 -37q-3 -19 -11 -26t-25 -7h-418q-17 0 -24.5 -7 t-10.5 -24l-82 -520q-3 -19 2.5 -25t24.5 -6h669q19 0 24.5 -6.5t2.5 -25.5l-6 -37q-3 -19 -11.5 -26t-25.5 -7h-782q-19 0 -25 6q-4 4 -3 13q0 5 1 12z" />
<glyph unicode="F" horiz-adv-x="980" d="M84 31l219 1382q3 19 10.5 26t26.5 7h717q19 0 25 -7q4 -5 4 -14q0 -5 -1 -10l-6 -39q-3 -17 -11 -23.5t-26 -6.5h-606q-19 0 -26.5 -7t-10.5 -26l-84 -533q-3 -18 2.5 -24t24.5 -6h510q19 0 25.5 -7t3.5 -24l-7 -39q-5 -31 -38 -31h-512q-17 0 -23.5 -6.5t-9.5 -24.5 l-94 -587q-5 -31 -37 -31h-49q-19 0 -25 6q-4 4 -3 13q0 5 1 12z" />
<glyph unicode="G" horiz-adv-x="1284" d="M72 563q0 126 29.5 254.5t90 248t143.5 212.5t199 149t248 56q139 0 250 -47.5t172 -128.5q27 -30 27 -64q0 -20 -14.5 -33.5t-32.5 -13.5q-35 0 -60 35q-53 66 -146.5 106.5t-195.5 40.5q-115 0 -213.5 -54.5t-164.5 -141.5t-113 -196t-68.5 -217t-21.5 -206 q0 -105 24.5 -194t72 -158t125 -108.5t175.5 -39.5q174 0 315 89q15 9 20.5 13t11 12.5t7.5 21.5l49 309q3 19 -2 25t-24 6h-197q-73 0 -73 41q0 61 90 61h303q19 0 24 -6t2 -25l-69 -458q-6 -35 -41 -60q-189 -133 -424 -133q-233 0 -375.5 168.5t-142.5 435.5z" />
<glyph unicode="H" horiz-adv-x="1288" d="M84 31l219 1384q3 19 9.5 25t25.5 6h55q17 0 22.5 -6t2.5 -25l-96 -604q-3 -19 2 -25t22 -6h617q17 0 24 6t10 25l97 604q3 19 10 25t26 6h50q18 0 24 -6q4 -4 3 -14q0 -5 -1 -11l-219 -1384q-3 -18 -11 -24.5t-26 -6.5h-51q-17 0 -22.5 7t-2.5 24l97 610q3 17 -2.5 24 t-22.5 7h-616q-18 0 -26 -6.5t-11 -24.5l-96 -610q-3 -17 -10.5 -24t-24.5 -7h-51q-19 0 -25 7q-4 5 -3 13q0 5 1 11z" />
<glyph unicode="I" horiz-adv-x="653" d="M-23 45q0 55 91 55h86q17 0 24 6.5t10 24.5l189 1182q1 18 -4 24t-23 6h-92q-74 0 -74 41q0 62 88 62h357q73 0 73 -41q0 -62 -90 -62h-88q-19 0 -26.5 -6t-8.5 -24l-188 -1182q-3 -17 2.5 -24t24.5 -7h104q74 0 74 -41q0 -59 -90 -59h-365q-74 0 -74 45z" />
<glyph unicode="J" horiz-adv-x="978" d="M-41 215l21 135q13 82 61 82q46 0 46 -52q0 -13 -3 -30l-21 -108q-5 -32 9 -58q23 -54 83.5 -86t135.5 -32q299 0 364 401l148 948q3 19 10.5 25t26.5 6h49q18 0 23 -6q4 -5 4 -14q0 -5 -1 -11l-145 -926q-15 -95 -38 -171.5t-61 -144.5t-90 -113.5t-126 -72t-166 -26.5 q-116 0 -202.5 54.5t-119.5 142.5q-9 23 -9 44q0 6 1 13z" />
<glyph unicode="K" horiz-adv-x="1073" d="M84 31l219 1382q3 19 10.5 26t26.5 7h49q18 0 24 -6.5t3 -24.5l-121 -751l684 751q13 13 18 17.5t14.5 9t20.5 4.5h72q14 0 20 -4q4 -2 4 -6v-4q-2 -7 -12 -17l-559 -606q49 -25 96.5 -82t81.5 -118t71.5 -154t57.5 -152t50 -152.5t38 -117.5q6 -19 2 -26t-22 -7h-68 q-22 0 -33 33q-2 7 -23 75t-41.5 132.5t-55 153t-67.5 155.5t-76 119.5t-83 64.5l-215 -233l-73 -469q-3 -19 -10.5 -25t-26.5 -6h-51q-19 0 -23 6q-3 4 -3 12q0 5 1 13z" />
<glyph unicode="L" horiz-adv-x="911" d="M84 31l221 1384q3 18 11 24.5t26 6.5h47q18 0 24 -6.5t3 -24.5l-201 -1284q-3 -17 2.5 -24t22.5 -7h610q18 0 24 -6q4 -4 4 -13q0 -5 -1 -11l-7 -39q-3 -19 -10 -25t-26 -6h-725q-17 0 -23 7q-4 5 -3 13q0 5 1 11z" />
<glyph unicode="M" horiz-adv-x="1503" d="M82 31l217 1384q3 19 10.5 25t26.5 6h88q17 0 23.5 -6.5t13.5 -24.5l264 -801h14l514 801q12 18 21 24.5t26 6.5h97q17 0 23 -6q4 -4 4 -14q0 -5 -1 -11l-219 -1384q-3 -18 -10 -24.5t-25 -6.5h-53q-17 0 -21 6.5t-1 24.5l206 1263h-8l-487 -753q-14 -18 -22.5 -24.5 t-22.5 -6.5h-80q-21 0 -33 31l-254 753h-8l-197 -1263q-3 -18 -10.5 -24.5t-25.5 -6.5h-48q-17 0 -21 6q-2 4 -2 12q0 5 1 13z" />
<glyph unicode="N" horiz-adv-x="1339" d="M84 31l221 1384q3 18 10 24.5t25 6.5h88q18 0 22.5 -4.5t12.5 -26.5l479 -1276h8l203 1276q3 18 10 24.5t25 6.5h43q17 0 23 -7q4 -5 4 -14q0 -5 -1 -10l-219 -1384q-3 -18 -11 -24.5t-26 -6.5h-90q-16 0 -21.5 6t-12.5 25l-480 1263h-8l-201 -1263q-3 -19 -10 -25 t-26 -6h-41q-19 0 -25 6q-4 4 -3 13q0 5 1 12z" />
<glyph unicode="O" horiz-adv-x="1452" d="M72 567q0 133 34.5 265t103 249t162 207t221 142.5t271.5 52.5q250 0 393.5 -166t143.5 -440q0 -128 -33 -257.5t-100 -248t-159 -210.5t-221 -147t-276 -55q-247 0 -393.5 168.5t-146.5 439.5zM195 565q0 -84 15.5 -158t48.5 -137.5t81 -109t117.5 -71.5t154.5 -26 q115 0 220 47.5t184 128.5t138 184.5t89.5 219t30.5 229.5q0 106 -25 196t-75 160t-132 110t-188 40q-118 0 -224.5 -48t-184.5 -129t-135 -185.5t-86 -220.5t-29 -230z" />
<glyph unicode="P" horiz-adv-x="1038" d="M84 31l217 1384q3 19 10.5 25t26.5 6h289q202 0 324 -90t122 -256q0 -102 -32 -184.5t-85 -136.5t-125 -90.5t-147 -52t-156 -15.5h-206q-33 -6 -35 -31l-90 -559q-3 -17 -10.5 -24t-24.5 -7h-49q-19 0 -25 7q-4 5 -5 14q0 5 1 10zM311 752q-1 -6 -1 -11q0 -8 4 -12 q6 -6 24 -6h190q58 0 113.5 10t113 36t101 65.5t71 104.5t27.5 148q0 126 -89.5 191t-254.5 65h-172q-19 0 -26.5 -6t-10.5 -24z" />
<glyph unicode="Q" horiz-adv-x="1472" d="M72 565q0 179 62 347.5t166.5 294t251.5 201t308 75.5q248 0 397.5 -170t149.5 -441q0 -105 -24 -213t-68.5 -209.5t-113.5 -190.5t-154 -156t-196 -105.5t-233 -38.5q-62 0 -120 12q-30 -26 -95 -72t-92 -55q24 0 68 12.5t70 12.5q60 0 118.5 -22t107 -44t83.5 -22 q89 0 176 53q41 23 57 23q13 0 23 -9.5t10 -23.5q0 -17 -15.5 -34.5t-35.5 -27.5q-120 -77 -234 -77q-52 0 -102.5 23t-102.5 46t-108 23q-72 0 -127 -15t-145 -55q-17 -11 -47.5 -7t-30.5 34q0 28 55 55q27 12 68 41.5t68 52t77 67t57 50.5q-155 63 -242 212t-87 353z M201 565q0 -84 15.5 -158t48.5 -137.5t81 -109t117.5 -71.5t154.5 -26q118 0 224.5 48t184.5 129t135.5 185.5t86.5 220.5t29 231q0 105 -25 194t-75 158.5t-131.5 109t-186.5 39.5q-115 0 -220 -47t-184 -128t-137 -184.5t-88 -220.5t-30 -233z" />
<glyph unicode="R" horiz-adv-x="1157" d="M82 31l221 1384q3 18 10 24.5t25 6.5h297q201 0 322.5 -93.5t121.5 -260.5q0 -102 -38.5 -185.5t-103.5 -138t-145 -86t-169 -37.5q72 -29 187 -218t169 -396q5 -17 0.5 -24t-21.5 -7h-73q-16 0 -21.5 8t-9.5 25q-20 76 -48 152t-72 158.5t-94.5 144.5t-117.5 102.5 t-139 40.5h-61q-17 0 -24.5 -7t-10.5 -24l-92 -569q-3 -17 -10.5 -24t-24.5 -7h-47q-19 0 -27 7q-5 5 -5 15q0 4 1 9zM311 762q-1 -6 -1 -11q0 -9 4 -13q6 -6 24 -7h190q78 0 152 21t138.5 61.5t103.5 110t39 157.5q0 128 -89 195t-254 67h-184q-18 0 -25 -6t-10 -24z" />
<glyph unicode="S" horiz-adv-x="1087" d="M59 172q0 18 12.5 29.5t28.5 11.5q23 0 66 -31q81 -66 158 -94.5t180 -28.5q148 0 235.5 79t87.5 218q0 62 -32.5 117.5t-84 98.5t-114 85t-124.5 88.5t-113.5 98.5t-84 124t-32.5 156q0 156 113.5 257.5t301.5 101.5q209 0 340 -127q35 -35 35 -60q0 -18 -14.5 -29.5 t-30.5 -11.5q-25 0 -53 25q-114 106 -277 106q-133 0 -218 -76t-85 -188q0 -55 20 -103t54 -85.5t77.5 -72t92 -66.5t97 -65t92 -72t77.5 -83t54 -102t20 -125q0 -176 -118 -282.5t-316 -106.5q-233 0 -398 141q-47 38 -47 72z" />
<glyph unicode="T" horiz-adv-x="1130" d="M109 1374l6 41q3 18 11 24.5t26 6.5h1062q20 0 26 -7q4 -5 4 -14q0 -4 -1 -10l-6 -41q-5 -31 -37 -31h-448q-18 0 -25 -6t-10 -24l-205 -1282q-3 -17 -10.5 -24t-24.5 -7h-51q-19 0 -24.5 7t-2.5 24l201 1282q3 18 -3.5 24t-25.5 6h-438q-17 1 -22 7q-3 4 -3 12q0 5 1 12 z" />
<glyph unicode="U" horiz-adv-x="1294" d="M81 441q1 77 15 163l129 811q3 19 10.5 25t26.5 6h53q17 0 22.5 -6t2.5 -25l-123 -784q-8 -52 -12.5 -95.5t-4.5 -104.5v-7q0 -58 7 -102q8 -48 29.5 -98.5t56 -84t91.5 -55t132 -21.5q384 0 477 568l125 784q3 19 10 25t27 6h51q18 0 24 -6q4 -4 4 -13q0 -5 -1 -12 l-129 -811q-17 -106 -43.5 -194.5t-73 -174.5t-109 -145t-155 -95t-207.5 -36q-98 0 -174.5 24.5t-125.5 69.5t-81 104q-31 59 -43 133q-11 68 -11 139v12z" />
<glyph unicode="V" horiz-adv-x="1259" d="M184 1415q-1 4 -1 8q0 11 7 16q9 7 31 7h43q25 0 32.5 -5.5t10.5 -25.5l223 -1278h9l624 1278q15 31 54 31h45q24 0 30 -7q2 -3 2 -7q0 -7 -6 -17l-686 -1384q-1 -3 -5 -10t-4.5 -8.5t-3.5 -5.5t-6 -4.5t-7.5 -1.5t-10.5 -1h-96q-16 0 -21 6t-8 25z" />
<glyph unicode="W" horiz-adv-x="1695" d="M190 1415v7q0 12 6 18q8 6 31 6h39q41 0 43 -31l101 -1290h8l424 1001q8 20 13.5 25.5t21.5 5.5h96q16 0 19.5 -5t6.5 -26l121 -1001h8l476 1290q11 31 53 31h37q26 0 30 -6q2 -2 1 -5q0 -7 -5 -20l-518 -1384q-8 -20 -13.5 -25.5t-23.5 -5.5h-104q-16 0 -20 5t-7 26 l-121 985h-16l-410 -985q-6 -20 -11.5 -25.5t-22.5 -5.5h-113q-13 0 -18 3t-6.5 8t-2.5 20z" />
<glyph unicode="X" horiz-adv-x="1441" d="M68 31l630 706l-360 678q-9 17 0 24t35 7h41q17 0 26.5 -6.5t18.5 -24.5l317 -606h6l535 606q16 18 26 24.5t27 6.5h47q36 0 36 -14q0 -7 -9 -17l-617 -702l359 -682q8 -17 -1 -24t-26 -7h-47q-17 0 -25.5 6t-19.5 25l-319 610h-7l-538 -610q-25 -31 -56 -31h-53 q-34 0 -34 14q0 7 8 17z" />
<glyph unicode="Y" horiz-adv-x="1128" d="M52 1439q7 7 38 7h45q19 0 27 -6.5t16 -24.5l311 -702h9l501 702q22 31 54 31h57q33 0 38 -6q1 -1 1 -3q0 -7 -12 -22l-580 -788q-16 -19 -20 -45l-88 -551q-3 -17 -10.5 -24t-24.5 -7h-52q-17 0 -23 7t-3 24l88 551q3 17 2 23.5t-8 21.5l-365 788q-5 9 -5 16q0 5 4 8z " />
<glyph unicode="Z" horiz-adv-x="1204" d="M16 27l2 18q3 17 6.5 23.5t18.5 25.5l1055 1249h-807q-14 0 -19 5.5t-2 21.5l6 45q1 17 9.5 24t27.5 7h918q17 0 23 -6q4 -4 4 -14q0 -5 -1 -11l-2 -26q-1 -5 -1.5 -8.5t-1 -6t-2 -5.5t-2 -4.5t-3.5 -5.5t-4 -5t-5.5 -6.5t-6.5 -8.5l-1036 -1239h866q19 0 24 -6.5 t2 -23.5l-6 -39q-3 -19 -10.5 -25t-26.5 -6h-997q-19 0 -25 4q-5 4 -4 18v5z" />
<glyph unicode="[" horiz-adv-x="577" d="M43 -211l266 1675q1 17 9.5 24t27.5 7h207q40 0 59 -11t15 -38q-4 -26 -25.5 -36.5t-62.5 -10.5h-105q-19 0 -27.5 -7t-11.5 -26l-233 -1479q-3 -19 2 -25.5t24 -6.5h105q41 0 60 -10.5t16 -37.5q-8 -49 -90 -49h-207q-19 0 -25.5 7t-3.5 24z" />
<glyph unicode="\" horiz-adv-x="641" d="M127 1458q-3 17 5 24t32 7h24q22 0 30 -6.5t11 -24.5l287 -1454q3 -17 -5.5 -24t-33.5 -7h-22q-22 0 -30 6.5t-11 26.5z" />
<glyph unicode="]" horiz-adv-x="577" d="M8 -190q4 26 25.5 36.5t62.5 10.5h105q19 0 27.5 7t11.5 25l233 1479q3 19 -2.5 26t-24.5 7h-104q-41 0 -60 10.5t-16 36.5q8 49 90 49h207q19 0 25.5 -7t3.5 -24l-266 -1675q-1 -17 -9.5 -24t-27.5 -7h-207q-40 0 -59 11.5t-15 38.5z" />
<glyph unicode="^" horiz-adv-x="1087" d="M81.5 623q-4.5 7 6.5 24l510 774q17 25 41 25h31q12 0 16.5 -5t9.5 -20l265 -774q6 -17 -2 -24t-35 -7h-17q-22 0 -29 6t-12 25l-225 682h-6l-438 -682q-13 -18 -23.5 -24.5t-32.5 -6.5h-28q-27 0 -31.5 7z" />
<glyph unicode="_" horiz-adv-x="860" d="M0 -229l2 14q3 18 10 24.5t25 6.5h794q19 0 25.5 -6.5t3.5 -24.5l-2 -16q-5 -31 -39 -31h-792q-19 0 -24.5 7t-2.5 26z" />
<glyph unicode="`" horiz-adv-x="493" d="M116 1476q3 7 19 7h84q14 0 20 -2.5t13 -14.5l127 -194q8 -12 10.5 -18t-1.5 -10.5t-19 -4.5h-27q-12 0 -18 3t-19 18l-182 200q-10 9 -7 16z" />
<glyph unicode="a" horiz-adv-x="1077" d="M82 387q0 81 18.5 170t59 178t97 160t139.5 115.5t179 44.5q93 0 156.5 -49.5t93.5 -139.5h9l20 129q3 18 10.5 23.5t26.5 5.5h41q18 0 24 -7q4 -5 3 -14q0 -5 -1 -12l-127 -823q-3 -21 -3 -39q0 -35 13 -53q18 -25 52 -25h8q21 2 28 -1t11 -19l2 -11q4 -15 0 -23 t-20 -15q-26 -13 -52 -13q-24 0 -47.5 7.5t-48.5 26.5t-38 59q-10 31 -10 71q0 12 1 25h-8q-120 -189 -301 -189q-153 0 -244.5 115t-91.5 303zM195 375q0 -142 54.5 -227t168.5 -85q96 0 172.5 59t120 150.5t66 190t22.5 190.5q0 140 -55.5 225t-168.5 85q-76 0 -141 -39 t-108 -101t-73.5 -140.5t-44 -156.5t-13.5 -151z" />
<glyph unicode="b" horiz-adv-x="1075" d="M115 31l221 1421q3 19 10 25t27 6h41q18 0 23.5 -6.5t2.5 -24.5l-90 -590h8q50 89 135 141t164 52q153 0 244.5 -115t91.5 -305q0 -66 -13.5 -139t-39 -148t-67 -143t-93.5 -120.5t-122.5 -84t-149.5 -31.5q-88 0 -158 52t-100 145h-8l-27 -139q-3 -18 -11 -22.5 t-28 -4.5h-35q-19 0 -24 6q-3 4 -3 13q0 5 1 12zM279 387q0 -144 57.5 -235t163.5 -91q76 0 141.5 39.5t109 101.5t74 141t44.5 157t14 149q0 142 -56 228t-170 86q-86 0 -159 -53t-120 -137t-73 -185t-26 -201z" />
<glyph unicode="c" horiz-adv-x="901" d="M72 385q0 172 64.5 326t178.5 249t248 95q169 0 264 -113q25 -28 25 -49q0 -14 -11 -25.5t-26 -11.5q-24 0 -57 29q-85 78 -195 78q-88 0 -162.5 -55t-121 -142.5t-72 -190.5t-25.5 -204q0 -140 55.5 -224t168.5 -84q75 0 123 16t114 52q48 25 66 25q14 0 24 -11t10 -26 q0 -33 -59 -70q-74 -43 -132.5 -61.5t-145.5 -18.5q-153 0 -243.5 114.5t-90.5 301.5z" />
<glyph unicode="d" horiz-adv-x="1095" d="M84 383q0 81 18.5 170.5t59 178.5t96.5 160.5t139 116t178 44.5q93 0 157.5 -49.5t94.5 -141.5h7l90 590q3 19 10 25t27 6h40q19 0 25 -7q4 -5 3 -13q0 -5 -1 -11l-197 -1284q-3 -21 -3 -39q0 -37 14 -55q17 -24 49 -24q6 0 12 1q19 2 26.5 -2t10.5 -20l2 -11 q4 -15 0 -23t-20 -15q-29 -11 -52 -11q-24 0 -47 7.5t-48 25.5t-39 58q-10 31 -10 71q0 12 1 25h-8q-118 -187 -301 -187q-153 0 -243.5 113.5t-90.5 300.5zM195 369q0 -140 55 -224t168 -84q78 0 143.5 39.5t108.5 102t73 142.5t43 157.5t13 150.5q0 141 -55 224.5 t-169 83.5q-88 0 -162.5 -55t-120.5 -142.5t-71.5 -190.5t-25.5 -204z" />
<glyph unicode="e" horiz-adv-x="923" d="M72 387q0 83 19 173t60 178.5t97.5 159t139 114t177.5 43.5q132 0 212.5 -74.5t80.5 -196.5q0 -77 -30.5 -135.5t-77.5 -92.5t-114.5 -55.5t-130 -28.5t-134.5 -7q-59 0 -181 10q-6 -53 -6 -100q0 -141 55 -226.5t169 -85.5q75 0 123 16t114 52q48 25 64 25q14 0 25 -11 t11 -26q0 -34 -61 -70q-71 -43 -130.5 -61.5t-145.5 -18.5q-154 0 -245 114.5t-91 303.5zM205 563q88 -10 182 -10q375 0 375 233q0 82 -52.5 129.5t-144.5 47.5q-132 0 -227.5 -113t-132.5 -287z" />
<glyph unicode="f" horiz-adv-x="737" d="M-279 -365q0 19 11.5 32.5t31.5 13.5q17 0 54 -15q87 -33 141 -33q134 0 170 222l164 1044q3 19 -1.5 25t-23.5 6h-67q-74 0 -74 39q0 55 90 55h66q18 0 24.5 6t9.5 25l23 143q52 315 317 315q63 0 179 -38q59 -20 59 -56q0 -18 -11.5 -30.5t-31.5 -12.5q-22 0 -61 17 q-82 32 -142 32q-45 0 -80 -14.5t-56.5 -36t-36.5 -53.5t-22 -59t-12 -60l-24 -147q-2 -19 3.5 -25t24.5 -6h175q73 0 73 -39q0 -55 -90 -55h-172q-19 0 -26.5 -6t-10.5 -25l-166 -1042q-28 -174 -96.5 -245t-175.5 -71q-59 0 -178 39q-58 20 -58 55z" />
<glyph unicode="g" horiz-adv-x="1034" d="M-25 -356q0 20 13.5 35.5t34.5 15.5t49 -25q83 -67 227 -67q336 0 408 448l18 107h-8q-58 -93 -130.5 -141t-168.5 -48q-154 0 -245 114.5t-91 301.5q0 82 19 171.5t59.5 178.5t97 160t139.5 115.5t178 44.5q93 0 156.5 -49.5t93.5 -141.5h9l20 131q3 18 10.5 23.5 t26.5 5.5h43q17 0 22 -7q3 -4 3 -13q0 -6 -1 -13l-149 -938q-88 -545 -522 -545q-165 0 -275 80q-37 29 -37 56zM193 373q0 -141 55.5 -225.5t169.5 -84.5q96 0 172.5 59t120 150.5t66 190t22.5 190.5q0 140 -55.5 225t-168.5 85q-63 0 -119 -27.5t-97 -74.5t-73.5 -106.5 t-52 -126t-30 -131.5t-10.5 -124z" />
<glyph unicode="h" horiz-adv-x="1103" d="M115 31l217 1421q3 19 10 25t27 6h41q18 0 24 -7t4 -26l-88 -588h6q56 85 140 139t186 54q57 0 100.5 -15.5t70.5 -40.5t44 -62.5t24 -75t7 -85t-4 -85t-11 -81.5l-71 -444q-3 -21 -3 -38q-1 -35 13 -54q19 -25 55 -25h8q19 2 25 -1t12 -19l4 -11q3 -7 3 -13 q0 -17 -23 -25q-29 -11 -53 -11q-21 0 -40.5 5t-43 19t-35.5 40t-20 68q-3 16 -3 35q0 30 7 67l63 401q4 25 6 40t5 46t3 52.5t-2.5 52t-9 51.5t-18.5 44.5t-29.5 37.5t-44 23.5t-59.5 9.5q-81 0 -146.5 -37.5t-109.5 -105t-72.5 -149.5t-44.5 -182l-74 -460 q-3 -18 -11 -22.5t-28 -4.5h-35q-17 0 -23 6q-4 4 -4 14q0 5 1 11z" />
<glyph unicode="i" horiz-adv-x="563" d="M125 971q0 53 90 53h166q20 0 25 -6.5t2 -24.5l-132 -825q-3 -19 -3 -35q1 -37 17 -57q21 -25 58 -25h8q22 2 29 -1t10 -21l2 -11q4 -15 0 -23t-20 -15q-29 -11 -53 -11q-17 0 -34 3t-37.5 12.5t-35 25.5t-27 42t-13.5 63v11q0 33 5 77l109 698q3 19 -1.5 25t-23.5 6h-67 q-74 0 -74 39zM336 1327l20 125q3 18 11 24.5t26 6.5h62q17 0 23 -7q4 -5 4 -14q0 -5 -1 -10l-22 -125q-3 -18 -10 -24.5t-25 -6.5h-64q-17 0 -22 6q-3 4 -3 13q0 5 1 12z" />
<glyph unicode="j" horiz-adv-x="585" d="M-270 -395q0 17 11 29t28 12q23 0 57 -15q68 -32 135 -32q76 0 127.5 55.5t69.5 167.5l170 1077q3 19 -2.5 25t-24.5 6h-119q-76 0 -76 39q0 55 91 55h219q19 0 25 -7t3 -26l-184 -1167q-14 -89 -43 -152t-69.5 -98t-87 -50.5t-103.5 -15.5q-80 0 -170 39q-57 23 -57 58z M365 1327l20 125q3 19 10.5 25t26.5 6h61q19 0 23 -6q3 -4 3 -12q0 -5 -1 -13l-21 -127q-3 -18 -9.5 -24.5t-24.5 -6.5h-62q-18 0 -23 7q-4 5 -4 14q0 5 1 12z" />
<glyph unicode="k" horiz-adv-x="1009" d="M115 31l225 1421q3 19 10 25t27 6h39q18 0 23.5 -6.5t2.5 -24.5l-143 -911q-2 -13 5.5 -16t19.5 7l469 457q40 35 65 35h70q21 0 21 -11q0 -7 -11 -16l-430 -415l240 -459q23 -39 54 -59q26 -16 65 -16q8 0 16 1q17 4 25 0t12 -20l4 -11q5 -15 0.5 -23t-21.5 -15 q-29 -11 -53 -11q-80 0 -131 39.5t-119 165.5l-174 328l-135 -123q-23 -23 -25 -45l-49 -307q-3 -17 -11.5 -22t-27.5 -5h-37q-17 0 -23 6q-4 4 -4 14q0 5 1 11z" />
<glyph unicode="l" horiz-adv-x="495" d="M124 114v11q0 34 5 78l184 1155q3 19 -1.5 25t-24.5 6h-82q-74 0 -74 38q0 56 88 56h182q19 0 25 -7q4 -5 3 -14q0 -5 -1 -12l-203 -1284q-3 -19 -3 -35q0 -37 16 -57q21 -26 59 -25h8q21 2 28.5 -1t10.5 -19l2 -11q4 -15 0 -23t-20 -15q-29 -11 -54 -11q-18 0 -34.5 3 t-37 12t-35 25t-27.5 41.5t-14 63.5z" />
<glyph unicode="m" horiz-adv-x="1640" d="M115 33l149 960q3 19 10 25t27 6h39q19 0 25 -7t4 -26l-21 -125h8q124 189 308 189q116 0 165.5 -50.5t63.5 -142.5q49 92 135.5 142.5t188.5 50.5q47 0 84 -10t62.5 -24.5t43 -41t28 -49t13.5 -60.5q4 -36 5 -62v-10q1 -22 -3 -58q-4 -42 -7.5 -64.5t-10.5 -63.5 l-70 -444q-3 -21 -4 -39q0 -35 14 -53q18 -25 54 -25h8q21 2 28.5 -1t10.5 -19l2 -11q1 -6 1 -11q0 -7 -2 -11q-4 -8 -20 -16q-26 -13 -53 -13q-17 0 -33.5 3t-36 12.5t-33 25.5t-25.5 42q-13 26 -13 64v6q0 36 6 83l63 401q19 123 19 167v7q0 183 -146 183 q-65 0 -118 -25.5t-88.5 -67.5t-63.5 -105.5t-44.5 -128t-29.5 -147.5l-74 -460q-3 -18 -11 -23.5t-28 -5.5h-36q-17 0 -22.5 7t-2.5 26l92 573q1 11 6 44.5t7.5 55.5t4 58t-1 60.5t-12 52.5t-25 45.5t-43 29t-63.5 11.5q-283 0 -360 -474l-74 -460q-3 -18 -11 -23.5 t-28 -5.5h-37q-17 0 -22 7q-3 4 -3 13q0 6 1 13z" />
<glyph unicode="n" horiz-adv-x="1103" d="M115 31l153 962q3 19 10 25t27 6h41q18 0 22.5 -6.5t2.5 -26.5l-21 -129h6q56 85 140 139t186 54q57 0 100.5 -15.5t70.5 -40.5t44 -62.5t24 -75t7 -85t-4 -85t-11 -81.5l-71 -444q-3 -21 -3 -38q-1 -35 13 -54q19 -25 55 -25h8q19 2 25 -1t12 -19l4 -11q3 -7 3 -13 q0 -17 -23 -25q-29 -11 -53 -11q-21 0 -40.5 5t-43 19t-35.5 40t-20 68q-3 16 -3 35q0 30 7 67l63 401q4 25 6 40t5 46t3 52.5t-2.5 52t-9 51.5t-18.5 44.5t-29.5 37.5t-44 23.5t-59.5 9.5q-81 0 -146.5 -37.5t-109.5 -105t-72.5 -149.5t-44.5 -182l-74 -460 q-3 -18 -11 -22.5t-28 -4.5h-35q-17 0 -23 6q-4 4 -4 14q0 5 1 11z" />
<glyph unicode="o" horiz-adv-x="993" d="M82 387q0 175 63 328t177 246.5t253 93.5q153 0 243.5 -113t90.5 -301q0 -128 -37.5 -250t-102 -215t-157 -150t-194.5 -57q-153 0 -244.5 115t-91.5 303zM193 375q0 -141 55.5 -226.5t169.5 -85.5q88 0 162 53.5t120 139.5t71.5 187t25.5 202q0 143 -55.5 230.5 t-166.5 87.5q-88 0 -162 -54.5t-121 -141t-73 -189t-26 -203.5z" />
<glyph unicode="p" horiz-adv-x="1107" d="M63 -430l232 1423q3 19 10 25t27 6h41q18 0 22 -6.5t2 -26.5l-20 -125h6q50 88 134.5 138.5t164.5 50.5q153 0 243.5 -113t90.5 -301q0 -79 -18.5 -168t-58 -179t-95 -162t-137 -117.5t-175.5 -45.5q-86 0 -156.5 55t-99.5 148h-8l-102 -602q-3 -18 -10 -24.5t-25 -6.5 h-43q-17 0 -22 6q-4 4 -4 13q0 5 1 12zM305 393q0 -144 57 -237t162 -93q90 0 165.5 59.5t121 151t70 191t24.5 188.5q0 139 -56 224.5t-167 85.5q-93 0 -168.5 -56.5t-119 -144.5t-66.5 -183.5t-23 -185.5z" />
<glyph unicode="q" horiz-adv-x="1052" d="M84 389q0 81 18.5 170t59 177.5t96.5 159.5t138 115t177 44q93 0 156.5 -49.5t93.5 -139.5h8l19 129q3 19 10 24t29 5h41q17 0 22 -6q3 -5 3 -13q0 -5 -1 -12l-227 -1423q-3 -18 -10 -24.5t-25 -6.5h-41q-17 0 -22 6t-2 25l96 592h-6q-122 -193 -301 -193 q-152 0 -242 115.5t-90 304.5zM195 373q0 -141 54 -226.5t167 -85.5q77 0 142 40t108 103.5t73.5 144t44 158.5t13.5 150q0 139 -55.5 222.5t-168.5 83.5q-65 0 -121.5 -27.5t-97 -74.5t-71.5 -106.5t-50 -126.5t-28.5 -131t-9.5 -124z" />
<glyph unicode="r" horiz-adv-x="806" d="M115 31l155 964q3 19 10 24t29 5h33q17 0 22.5 -7t2.5 -24l-33 -188h8q62 104 157.5 177t207.5 73q133 0 133 -54q0 -45 -64 -45q-9 0 -35 2.5t-49 2.5q-82 0 -153.5 -41t-122.5 -111t-85.5 -157.5t-49.5 -184.5l-70 -440q-3 -17 -11.5 -22t-27.5 -5h-31q-19 0 -24 6 q-3 4 -3 13q0 5 1 12z" />
<glyph unicode="s" horiz-adv-x="921" d="M78 147q0 20 11.5 31.5t29.5 11.5q22 0 47 -28q41 -45 107 -73t141 -28q129 0 200.5 65.5t71.5 160.5q0 45 -27 81.5t-70.5 62.5t-96 50.5t-105.5 51.5t-96.5 59.5t-70.5 81t-27 108.5q0 51 21.5 99t61.5 87t104.5 63t143.5 24q84 0 156.5 -26t116.5 -73q22 -25 22 -45 q0 -16 -11.5 -27.5t-29.5 -11.5q-20 0 -47 21q-90 74 -211 74q-60 0 -106.5 -19t-71.5 -48.5t-37 -59.5t-12 -58q1 -42 28.5 -76.5t71.5 -59.5t96.5 -49.5t105 -52.5t96 -61.5t70.5 -83.5t27 -112q0 -42 -10.5 -83.5t-38 -84.5t-68 -76t-107 -53.5t-148.5 -20.5 q-112 0 -195 39t-123 90q-20 26 -20 49z" />
<glyph unicode="t" horiz-adv-x="696" d="M84 973q0 29 22.5 40t65.5 11h66q18 0 25.5 7t10.5 26l31 192q13 80 64 80q40 0 40 -50q0 -13 -3 -30l-31 -192q-3 -19 2 -26t22 -7h136q73 0 73 -35q0 -30 -20 -39.5t-66 -9.5h-135q-17 0 -24.5 -7t-10.5 -24l-102 -635q-8 -44 -8 -94q0 -59 25.5 -89t90.5 -30 q66 0 154 35q44 15 63 15q16 0 25.5 -12t9.5 -27q0 -36 -61 -60q-114 -43 -211 -43q-195 0 -195 211q0 44 9 99l100 630q3 17 -2.5 24t-24.5 7h-65q-76 0 -76 33z" />
<glyph unicode="u" horiz-adv-x="1064" d="M114 246q0 47 4 84.5t11 81.5l90 581q3 19 10 25t27 6h41q18 0 22.5 -6.5t2.5 -26.5l-91 -573l-6 -40.5t-5.5 -46t-3.5 -53t2 -52t8.5 -51.5t18.5 -44t29 -37.5t42.5 -23t58.5 -9.5q66 0 122 25t97.5 68.5t74 104.5t53 129t32.5 147l73 462q3 17 11.5 22t27.5 5h37 q19 0 25 -6q4 -4 3 -13q0 -5 -1 -12l-133 -827q-3 -21 -3 -38q0 -35 14 -54q19 -25 54 -25h8q20 2 28 -1t11 -19l2 -11q3 -15 -1 -22t-21 -16q-19 -11 -51 -11q-26 0 -49.5 7t-48.5 25.5t-38 58.5q-9 29 -9 67q0 15 1 31h-8q-53 -84 -138 -136.5t-188 -52.5q-57 0 -101 15.5 t-71 40.5t-44 62.5t-23.5 74.5t-6.5 84z" />
<glyph unicode="v" horiz-adv-x="925" d="M123 993q-1 5 -1 10q0 11 5 15q7 6 27 6h30q38 0 43 -31l125 -899h8l433 899q11 20 18 25.5t25 5.5h55q23 0 28 -7q2 -2 2 -6q0 -7 -6 -18l-497 -960q-10 -21 -17 -27t-26 -6h-68q-18 0 -25 7.5t-10 25.5z" />
<glyph unicode="w" horiz-adv-x="1308" d="M117 993v5q0 15 5 20q6 6 25 6h37q19 0 26.5 -6t10.5 -25l96 -899h7l266 631q9 19 17 25t28 6h70q18 0 23.5 -6t8.5 -25l113 -631h10l305 899q7 20 15.5 25.5t29.5 5.5h50q23 0 28 -7q2 -3 2 -8q0 -7 -4 -16l-368 -962q-6 -17 -15 -24t-26 -7h-68q-17 0 -23.5 6.5 t-11.5 24.5l-115 606h-4l-274 -606q-9 -19 -17 -25t-26 -6h-72q-32 0 -35 23z" />
<glyph unicode="x" horiz-adv-x="985" d="M23 6q-2 2 -2 5q0 7 8 20l403 526l-219 436q-4 9 -4 15t2.5 9t10 5t13 2h17.5h29q29 0 38 -29l183 -358h6l270 356q19 22 27 26.5t31 4.5h51q25 0 29 -4q1 -1 0 -2q0 -6 -13 -25l-346 -450l258 -512q9 -20 6.5 -25.5t-20.5 -5.5h-45q-19 0 -29.5 6.5t-17.5 24.5l-222 432 h-6l-327 -432q-15 -22 -21.5 -26.5t-23.5 -4.5h-58q-22 0 -28 6z" />
<glyph unicode="y" horiz-adv-x="940" d="M64 -456q-2 3 -2 8q0 7 4 18l200 385q12 24 8 51l-161 987q-3 18 4 24.5t26 6.5h39q38 0 43 -31l123 -872h8l428 870q9 19 18 26t27 7h54q23 0 29 -7q2 -3 2 -7q0 -7 -5 -17l-737 -1423q-9 -19 -18.5 -25t-28.5 -6h-33q-21 0 -28 5z" />
<glyph unicode="z" horiz-adv-x="937" d="M33 31l2 18q0 5 1 9t1.5 7t2.5 6t3 5t3.5 5.5t4 5.5t5 6t5.5 7l654 801q22 29 -10 29h-510q-19 0 -24.5 6t-2.5 25l6 30q3 19 10.5 26t26.5 7h635q17 0 22 -7q3 -4 3 -13q0 -5 -1 -13l-4 -20q-5 -29 -26 -56l-645 -796q-10 -11 -8 -19t18 -8h563q18 0 23.5 -6.5 t3.5 -24.5l-4 -30q-3 -19 -10.5 -25t-26.5 -6h-695q-18 0 -23 6q-4 4 -4 15q0 5 1 10z" />
<glyph unicode="{" horiz-adv-x="557" d="M59 559q0 59 91 59q20 0 36.5 8.5t28.5 26t20 35t15 45t10.5 46.5t7.5 48l54 355q15 101 82.5 182.5t166.5 81.5q39 0 39 -37q0 -28 -19.5 -44.5t-58.5 -27.5q-85 -22 -110 -178l-57 -364q-1 -12 -8.5 -36.5t-23 -62.5t-46.5 -74t-70 -55q32 -18 51 -51t23 -69.5 t3.5 -61.5t-3.5 -43q-7 -21 -66 -405q-27 -163 51 -187q32 -9 48 -19t16 -28q0 -23 -14 -37t-35 -14q-64 0 -107.5 38.5t-59 97.5t-3.5 126l65 395q5 29 7 47t4 46.5t-1 45.5t-9 35t-20 26.5t-34 8.5q-74 0 -74 41z" />
<glyph unicode="|" horiz-adv-x="464" d="M174 -498v2046q0 19 7 26t24 7h55q18 0 24.5 -7t6.5 -26v-2046q0 -19 -6 -24.5t-25 -5.5h-55q-18 0 -24.5 6t-6.5 24z" />
<glyph unicode="}" horiz-adv-x="557" d="M0 -307q0 49 78 69q89 23 110 177l62 405q2 17 7 37.5t19 60.5t45.5 75t75.5 54q-32 18 -51 51t-22.5 69.5t-3 62t3.5 43.5l61 364q27 163 -51 187q-32 9 -48 19t-16 28q0 23 14 37t35 14q55 0 94.5 -26t55.5 -65t23 -85t-3 -86l-61 -355q-5 -29 -7 -47t-4 -46t1 -45.5 t9 -35t20 -26t34 -8.5q74 0 74 -41q0 -60 -90 -60q-30 0 -51.5 -18t-34.5 -53.5t-19.5 -64t-13.5 -73.5l-57 -395q-4 -32 -15.5 -66.5t-32.5 -70t-48.5 -63t-67 -45t-84.5 -17.5q-41 0 -41 39z" />
<glyph unicode="~" horiz-adv-x="1228" d="M113 469q0 15 8 39q59 166 215 166q36 0 79.5 -10t72 -20t72.5 -28t56 -22q28 -10 79.5 -30t72.5 -27.5t50 -15t50 -7.5q85 0 117 94q19 66 62 66q34 0 34 -37q0 -22 -8 -43q-61 -166 -215 -166q-29 0 -60 5t-65.5 16t-54 18.5t-57 23t-43.5 17.5q-23 9 -65 25t-60.5 23 t-46 16t-46.5 12.5t-36 3.5q-85 0 -113 -94q-23 -66 -61 -66q-37 0 -37 41z" />
<glyph unicode="&#xa1;" horiz-adv-x="702" d="M154 -342l194 1030q2 17 9 24t26 7h29q18 0 23 -6.5t5 -24.5l-135 -1030q-3 -18 -10 -24.5t-25 -6.5h-88q-19 0 -25 6.5t-3 24.5zM350 936l19 106q3 19 10 25t24 6h86q19 0 25.5 -6.5t3.5 -24.5l-18 -106q-3 -18 -11 -24.5t-26 -6.5h-86q-17 0 -23.5 7t-3.5 24z" />
<glyph unicode="&#xa2;" horiz-adv-x="944" d="M82 385q0 84 17 169.5t54 169.5t89.5 152t129.5 115.5t169 61.5l28 176q3 18 11 24.5t26 6.5h19q18 0 23.5 -6.5t2.5 -24.5l-28 -176q135 -18 215 -111q24 -27 24 -49q0 -14 -11 -25.5t-26 -11.5q-24 0 -57 29q-73 66 -160 76l-143 -895q54 4 94.5 19.5t93.5 45.5 q48 25 66 25q14 0 24.5 -11t10.5 -26q0 -33 -60 -70q-68 -39 -120.5 -57t-122.5 -21l-29 -182q-3 -17 -10.5 -24t-24.5 -7h-20q-19 0 -24.5 7t-2.5 24l29 182q-133 19 -210 130.5t-77 283.5zM193 371q0 -130 46.5 -212t143.5 -93l143 892q-86 -18 -153 -80t-105 -148.5 t-56.5 -177.5t-18.5 -181z" />
<glyph unicode="&#xa3;" horiz-adv-x="1110" d="M16 43q0 57 90 57h29q28 0 68 31q233 204 233 465q0 61 -10 127h-180q-72 0 -72 43q0 57 90 57h150q-2 15 -6.5 49.5t-7 55.5t-5 51.5t-2.5 56.5q0 128 44 227t137.5 159.5t226.5 60.5q144 0 239 -88q31 -24 31 -58q0 -18 -12.5 -30.5t-30.5 -12.5q-20 0 -57 27 q-82 61 -176 61q-64 0 -115.5 -24.5t-83.5 -62t-53.5 -86.5t-30 -95t-8.5 -90q0 -31 4 -64.5t10.5 -73.5t9.5 -63h283q74 0 74 -41q0 -59 -90 -59h-254q10 -66 10 -127q0 -125 -58 -253t-155 -212q-20 -17 -15 -24t39 -7h558q19 0 24 -6.5t2 -23.5l-6 -39q-3 -18 -10 -24.5 t-25 -6.5h-815q-74 0 -74 43z" />
<glyph unicode="&#xa5;" horiz-adv-x="1173" d="M47 410l2 22q3 18 11 24.5t26 6.5h322l18 119q3 17 2 23.5t-8 21.5l-6 14h-301q-18 0 -23 7t-2 26l2 22q3 19 10.5 26t26.5 7h246l-318 686q-10 17 -2.5 24t39.5 7h25q19 0 27 -6.5t16 -24.5l334 -719h8l518 719q12 18 23.5 24.5t29.5 6.5h39q33 0 37.5 -6t-10.5 -25 l-506 -686h264q17 0 22.5 -7t2.5 -26l-4 -24q-1 -17 -9.5 -24t-25.5 -7h-314l-10 -14q-16 -19 -20 -45l-19 -119h336q17 0 22.5 -7t2.5 -24l-2 -22q-3 -18 -11 -24.5t-26 -6.5h-336l-55 -348q-3 -17 -10.5 -24t-24.5 -7h-1h-1h-1h-1h-1h-1h-1h-1h-1h-1h-1h-1h-1h-1h-2h-1h-1 h-2h-1h-2h-1h-2h-1h-2h-1h-2h-2h-1h-2h-2h-2h-2h-8q-17 0 -23.5 7t-3.5 24l55 348h-321q-19 0 -23.5 6t-1.5 25z" />
<glyph unicode="&#xa6;" horiz-adv-x="464" d="M88 31l90 571q3 19 11.5 26t25.5 7h37q18 0 22.5 -7t1.5 -26l-90 -571q-3 -19 -9.5 -25t-24.5 -6h-37q-18 0 -24 6.5t-3 24.5zM217 842l90 571q3 19 10.5 26t24.5 7h37q19 0 24.5 -7t2.5 -26l-91 -571q-3 -19 -10 -25t-26 -6h-37q-17 0 -22.5 6t-2.5 25z" />
<glyph unicode="&#xa7;" horiz-adv-x="1204" d="M121 -39q0 17 8 24t27 7h45q18 0 22 -6t6 -25q3 -33 16.5 -62.5t43.5 -60t89.5 -49t141.5 -18.5t146.5 20t102 50t62 69t33 72t8.5 63q0 38 -14.5 69.5t-33.5 51.5t-53 40t-56 29t-60 23l-206 80q-121 47 -191 115t-70 172q0 82 42 146t132 116q-73 73 -73 180 q0 173 133 276t330 103q86 0 152 -18t105 -46t63.5 -68t33 -78.5t8.5 -82.5q0 -18 -8.5 -24.5t-28.5 -6.5h-45q-18 0 -21 5t-3 26q0 190 -260 190q-58 0 -114.5 -14.5t-107 -44t-81.5 -81.5t-31 -118q0 -73 48.5 -118.5t141.5 -81.5l180 -68q39 -14 58.5 -22t58 -25.5 t60.5 -32.5t51.5 -40t45 -51t27 -62t11.5 -76q0 -84 -37 -149t-121 -126q59 -65 59 -161q0 -184 -136 -294t-343 -110q-87 0 -156.5 17.5t-113.5 46.5t-73.5 68t-41.5 78.5t-12 82.5zM309 639q0 -72 50 -116t145 -81l182 -69q136 -50 195 -92q92 92 92 200q0 40 -18.5 75.5 t-42 57.5t-65 45t-65.5 32.5t-67 25.5l-176 63q-66 26 -115 58q-115 -84 -115 -199z" />
<glyph unicode="&#xa8;" horiz-adv-x="940" d="M225 1257l17 97q3 18 10.5 24t26.5 6h65q19 0 23.5 -5.5t1.5 -24.5l-17 -97q-3 -19 -10 -25.5t-25 -6.5h-65q-19 0 -24.5 6.5t-2.5 25.5zM547 1257l16 97q3 18 10.5 24t26.5 6h66q19 0 23 -5.5t1 -24.5l-16 -97q-3 -19 -10 -25.5t-25 -6.5h-66q-18 0 -23.5 7t-2.5 25z " />
<glyph unicode="&#xa9;" horiz-adv-x="1134" d="M61 971q0 213 147.5 363.5t358.5 150.5q140 0 256.5 -69t183 -187t66.5 -258t-66.5 -258t-183 -187t-256.5 -69q-211 0 -358.5 150.5t-147.5 363.5zM129 971q0 -187 127.5 -320t310.5 -133q185 0 312 133t127 320t-127 319.5t-312 132.5q-121 0 -222 -61t-158.5 -165 t-57.5 -226zM303 981q0 150 71.5 245t194.5 95q76 0 135.5 -34t83.5 -95q5 -13 -6 -18l-30 -15q-11 -7 -19 6q-60 101 -164 101q-55 0 -94.5 -22.5t-61.5 -63.5t-32 -90t-10 -109q0 -125 48 -204t154 -79q57 0 94.5 26.5t67.5 74.5q7 12 19 6l32 -14q13 -5 5 -19 q-31 -61 -88 -95t-130 -34q-124 0 -197 95t-73 243z" />
<glyph unicode="&#xaa;" horiz-adv-x="669" d="M63 1047q0 63 19.5 130.5t55 128.5t95.5 100.5t132 39.5q54 0 91.5 -31.5t55.5 -87.5h6l14 84q1 10 5.5 13t15.5 3h31q12 0 15.5 -4t0.5 -16l-76 -496q-6 -38 5.5 -54.5t35.5 -14.5q21 3 25 -13l2 -6q4 -13 -10 -22q-11 -8 -35 -8q-40 0 -67.5 27t-20.5 93h-4 q-77 -120 -187 -120q-92 0 -148.5 70t-56.5 184zM150 1034q0 -180 120 -180q59 0 105 35t71 90t37.5 113.5t12.5 115.5q0 81 -31.5 129.5t-97.5 48.5q-56 0 -100 -35t-68.5 -90t-36.5 -113.5t-12 -113.5z" />
<glyph unicode="&#xab;" horiz-adv-x="995" d="M164 500l260 387q32 49 63 49q16 0 27.5 -12.5t11.5 -26.5q0 -18 -24 -61l-207 -336l207 -334q24 -43 24 -62q0 -17 -12.5 -27.5t-28.5 -10.5q-31 0 -61 47zM469 500l260 387q30 49 62 49q17 0 28.5 -12t11.5 -27q0 -18 -24 -61l-205 -336l205 -334q24 -43 24 -62 q0 -17 -12 -27.5t-28 -10.5q-32 0 -62 47z" />
<glyph unicode="&#xac;" horiz-adv-x="1064" d="M84 713l6 41q3 18 10.5 24t26.5 6h819q19 0 25.5 -6t3.5 -24l-62 -379q-2 -19 -8.5 -26t-25.5 -7h-37q-17 0 -23 7t-4 26l45 274q3 18 -3.5 24.5t-25.5 6.5h-720q-19 0 -24.5 7t-2.5 26z" />
<glyph unicode="&#xad;" horiz-adv-x="825" d="M102 514l7 37q3 19 10 25t24 6h541q18 0 24 -6.5t3 -24.5l-6 -37q-3 -17 -10.5 -24t-24.5 -7h-541q-17 0 -23.5 7t-3.5 24z" />
<glyph unicode="&#xae;" horiz-adv-x="1134" d="M61 973q0 139 67 256.5t183.5 186.5t255.5 69q212 0 359 -150t147 -362q0 -140 -66.5 -258t-183 -187t-256.5 -69q-211 0 -358.5 150.5t-147.5 363.5zM129 973q0 -188 127 -320.5t311 -132.5q185 0 312 132t127 321q0 187 -127 318.5t-312 131.5q-121 0 -222 -60.5 t-158.5 -164t-57.5 -225.5zM391 680v608q0 15 15 15h129q231 0 231 -179q0 -37 -12 -67t-30 -48t-42.5 -30.5t-45 -18t-42.5 -8.5q43 -14 111 -108l120 -164q5 -8 3 -11t-13 -3h-45q-9 0 -16 14l-119 164q-33 45 -74 73.5t-82 28.5h-16q-12 0 -12 -14v-252q0 -14 -15 -14 h-30q-15 0 -15 14zM451 1008q0 -15 14 -15h82q68 0 115 31.5t47 99.5q0 49 -28 80t-61.5 40t-72.5 9h-82q-8 0 -11 -2.5t-3 -11.5v-231z" />
<glyph unicode="&#xaf;" horiz-adv-x="587" d="M63 1393l3 22q3 18 10.5 24.5t25.5 6.5h398q17 0 22 -6t2 -25l-2 -22q-5 -31 -37 -31h-397q-17 0 -22.5 7t-2.5 24z" />
<glyph unicode="&#xb0;" horiz-adv-x="856" d="M121 1313q0 118 89 206.5t204 88.5q106 0 168.5 -63.5t62.5 -160.5q0 -127 -90 -208.5t-209 -81.5q-96 0 -160.5 63t-64.5 156zM207 1323q0 -62 41.5 -104.5t105.5 -42.5q85 0 145 61t60 141q0 64 -42 106t-109 42q-82 0 -141.5 -63t-59.5 -140z" />
<glyph unicode="&#xb1;" horiz-adv-x="1163" d="M41 33l6 33q1 17 9 23.5t26 6.5h924q18 0 23 -6t3 -24l-6 -33q-3 -19 -10 -26t-25 -7h-923q-18 0 -24 7.5t-3 25.5zM150 621l6 38q3 19 10 25t24 6h400l53 334q3 18 10 24.5t25 6.5h41q19 0 24 -6t2 -25l-53 -334h400q19 0 24 -6t2 -25l-6 -36q-3 -19 -10.5 -26t-26.5 -7 h-399l-58 -359q-2 -17 -8.5 -23.5t-25.5 -6.5h-41q-17 0 -23 6.5t-4 23.5l57 359h-399q-17 0 -22 6t-2 25z" />
<glyph unicode="&#xb2;" horiz-adv-x="716" d="M47 643l4 23q1 8 19 26l344 352q1 1 30.5 30t37 37t30 35t30.5 43.5t16.5 41.5t8.5 49q0 43 -31.5 71.5t-99.5 28.5q-83 0 -131 -55q-19 -22 -39 -22q-11 0 -19.5 8t-8.5 20q0 13 14 31q70 84 186 84q94 0 152.5 -44.5t58.5 -117.5q0 -28 -6.5 -54.5t-25 -56t-29 -46 t-42.5 -50.5t-39.5 -41.5t-45.5 -44.5l-303 -299h379q18 0 14 -22l-4 -27q-3 -18 -21 -18h-460q-11 0 -15.5 4t-3.5 14z" />
<glyph unicode="&#xb3;" horiz-adv-x="716" d="M82 733q0 13 11.5 24t23.5 11q15 0 28 -16q63 -78 164 -78q104 0 162.5 61t58.5 152q0 73 -48.5 108t-121.5 35q-38 0 -38 31q0 21 16.5 31t34.5 10q23 0 47.5 4.5t51.5 17t48 31.5t35 49.5t14 69.5q0 58 -38.5 83t-90.5 25q-63 0 -149 -51q-17 -10 -27 -10 q-11 0 -18.5 9t-7.5 20q0 21 30 41q78 55 174 55q34 0 66.5 -7.5t66 -25t54 -53.5t20.5 -86q0 -80 -48 -135.5t-120 -71.5q58 -16 93.5 -59t35.5 -111q0 -132 -80 -211.5t-221 -79.5q-70 0 -128.5 26t-86.5 70q-12 15 -12 31z" />
<glyph unicode="&#xb4;" horiz-adv-x="491" d="M94.5 1254.5q2.5 6.5 11.5 17.5l156 190q10 14 18 17.5t23 3.5h86q16 0 19 -7t-7 -16l-211 -192q-17 -17 -27 -23t-26 -6h-20q-15 0 -20 4.5t-2.5 11z" />
<glyph unicode="&#xb6;" horiz-adv-x="1054" d="M143 1188q0 170 109 281.5t272 111.5h346q19 0 23.5 -6t1.5 -25l-262 -1659q-3 -19 -9.5 -24.5t-25.5 -5.5h-23q-19 0 -24 5.5t-2 24.5l250 1573q3 19 -2.5 25t-24.5 6h-145q-19 0 -25.5 -6t-9.5 -25l-250 -1573q-3 -18 -10 -24t-25 -6h-24q-18 0 -24 6t-3 24l164 1039 q-128 0 -202.5 68.5t-74.5 189.5z" />
<glyph unicode="&#xb7;" horiz-adv-x="534" d="M172 621l18 110q3 19 10.5 25t26.5 6h111q17 0 22 -6t2 -25l-18 -110q-3 -19 -10.5 -26t-26.5 -7h-110q-17 0 -22.5 7t-2.5 26z" />
<glyph unicode="&#xb8;" horiz-adv-x="524" d="M59 -401q0 17 9.5 25.5t23.5 8.5q4 0 42 -7t79 -7q55 0 95 25.5t40 79.5q0 69 -98 69q-8 0 -19.5 -1.5t-24.5 -3.5t-18 -3q-19 -5 -31.5 -4t-21.5 14q-16 25 2 45l109 119h80l-88 -98q26 10 61 10q59 0 101 -35.5t42 -101.5q0 -101 -68 -148t-171 -47q-12 0 -31 2 t-47 7.5t-47 19t-19 31.5z" />
<glyph unicode="&#xb9;" horiz-adv-x="716" d="M268 1331q0 31 41 43l185 70q9 3 12 -0.5t2 -16.5l-125 -782q-1 -11 -5 -14.5t-13 -3.5h-46q-17 0 -14 18l109 674q3 16 -1.5 18.5t-13.5 -2.5l-82 -24q-16 -4 -22 -4q-27 0 -27 24z" />
<glyph unicode="&#xba;" horiz-adv-x="800" d="M121 1313q0 118 88 206.5t205 88.5q106 0 168.5 -63.5t62.5 -160.5q0 -124 -90.5 -207t-208.5 -83q-96 0 -160.5 63t-64.5 156zM207 1323q0 -62 41.5 -104.5t105.5 -42.5q85 0 145 61t60 141q0 64 -42 106t-109 42q-82 0 -141.5 -63t-59.5 -140z" />
<glyph unicode="&#xbb;" horiz-adv-x="995" d="M162 104q0 19 24 62l207 334l-207 336q-24 43 -24 61q0 17 12.5 28t28.5 11q31 0 61 -49l260 -387l-260 -387q-30 -47 -61 -47q-17 0 -29 11.5t-12 26.5zM469 104q0 21 23 62l206 334l-206 336q-23 41 -23 61q0 18 11.5 28.5t27.5 10.5q33 0 63 -49l258 -387l-258 -387 q-30 -47 -63 -47q-18 0 -28.5 11t-10.5 27z" />
<glyph unicode="&#xbc;" horiz-adv-x="1718" d="M268 1331q0 31 41 43l185 70q9 3 12 -0.5t2 -16.5l-125 -782q-1 -11 -5 -14.5t-13 -3.5h-46q-17 0 -14 18l109 674q3 16 -1.5 18.5t-13.5 -2.5l-82 -24q-16 -4 -22 -4q-27 0 -27 24zM349.5 -24q-8.5 7 0.5 24l887 1454q19 31 63 31q24 0 29.5 -7t-4.5 -24l-887 -1452 q-11 -19 -21.5 -26t-33.5 -7q-25 0 -33.5 7zM922 190l4 29q3 20 12 29l438 530q16 19 27 19h55q20 0 17 -19l-86 -534h63q19 0 30 -9t11 -22q0 -17 -14.5 -29t-36.5 -12h-64l-24 -154q-3 -18 -19 -18h-43q-17 0 -14 18l25 154h-367q-17 0 -14 18zM1020 244h293l71 442z" />
<glyph unicode="&#xbd;" horiz-adv-x="1714" d="M268 1331q0 31 41 43l185 70q9 3 12 -0.5t2 -16.5l-125 -782q-1 -11 -5 -14.5t-13 -3.5h-46q-17 0 -14 18l109 674q3 16 -1.5 18.5t-13.5 -2.5l-82 -24q-16 -4 -22 -4q-27 0 -27 24zM329 -24q-8 7 1 24l887 1452q19 31 63 31q24 0 29.5 -7t-4.5 -24l-887 -1450 q-11 -19 -22 -26t-34 -7q-25 0 -33 7zM907 18l4 23q2 10 19 27l344 352q3 3 30.5 30t36.5 36.5t30.5 35.5t30 43t17 41.5t8.5 48.5q0 43 -31.5 72t-99.5 29q-82 0 -131 -56q-19 -22 -39 -22q-11 0 -19.5 8.5t-8.5 20.5q0 13 14 30q70 84 186 84q94 0 152.5 -44.5 t58.5 -117.5q0 -51 -30.5 -106.5t-58 -85.5t-86.5 -87q-2 -2 -3 -3.5t-3 -3t-3.5 -3l-3.5 -3.5l-303 -299h379q19 0 14 -23l-4 -27q-3 -18 -21 -18h-460q-11 0 -15.5 4t-3.5 14z" />
<glyph unicode="&#xbe;" horiz-adv-x="1718" d="M94 733q0 13 11.5 24t23.5 11q16 0 29 -16q63 -78 164 -78q104 0 162.5 61t58.5 152q0 73 -48.5 108t-121.5 35q-18 0 -28.5 8.5t-10.5 22.5q0 21 16.5 31t34.5 10q30 0 61 8.5t63 26.5t52.5 53.5t20.5 83.5q0 58 -38.5 83t-90.5 25q-64 0 -150 -51q-17 -10 -27 -10 q-11 0 -18.5 9t-7.5 20q0 20 31 41q78 55 174 55q34 0 66.5 -7.5t66 -25t54 -53.5t20.5 -86q0 -80 -48 -135.5t-120 -71.5q58 -16 93.5 -59t35.5 -111q0 -132 -80 -211.5t-221 -79.5q-70 0 -129.5 26t-86.5 70q-12 15 -12 31zM411 -24q-8 7 1 24l886 1452q19 31 64 31 q23 0 28.5 -7t-4.5 -24l-886 -1450q-11 -19 -22 -26t-34 -7q-25 0 -33 7zM942 190l4 29q3 20 12 29l439 530q16 19 26 19h56q19 0 16 -19l-86 -534h64q19 0 29.5 -9t10.5 -22q0 -17 -14.5 -29t-36.5 -12h-63l-25 -154q-2 -11 -5.5 -14.5t-12.5 -3.5h-43q-18 0 -15 18l25 154 h-367q-17 0 -14 18zM1040 244h293l72 442z" />
<glyph unicode="&#xbf;" horiz-adv-x="987" d="M127 -82q0 123 46.5 227.5t142 176t225.5 84.5q19 2 25 7t9 23l39 240q3 19 10.5 25t26.5 6h47q19 0 24.5 -6t2.5 -25l-53 -330q-1 -17 -8.5 -23t-26.5 -8q-170 -8 -277.5 -111t-107.5 -276q0 -66 22 -114.5t57.5 -74.5t74 -38t79.5 -12q105 0 193 49q34 16 39 45l16 100 q13 82 64 82q52 0 39 -82l-27 -166q-2 -12 -8 -20.5t-12 -13t-21 -13.5q-136 -84 -289 -84q-45 0 -89.5 8t-93.5 31t-85 58.5t-60 96t-24 138.5zM627 932l18 106q3 18 10 24.5t25 6.5h86q19 0 25.5 -6.5t3.5 -24.5l-19 -106q-3 -18 -11 -24.5t-26 -6.5h-86q-17 0 -23 7 t-3 24z" />
<glyph unicode="&#xc0;" horiz-adv-x="1372" d="M66.5 7q-5.5 7 3.5 24l739 1384q2 3 5.5 9t4.5 8t4.5 6t6 5t7.5 2t11 1h65q16 0 22 -7t9 -24l307 -1384q3 -17 -5 -24t-32 -7h-34q-38 0 -43 31l-97 448h-614l-238 -448q-15 -31 -53 -31h-39q-24 0 -29.5 7zM479 582h539l-152 737h-6zM714 1838.5q3 6.5 19 6.5h84 q11 0 15 -0.5t8.5 -4t9.5 -11.5l127 -195q8 -12 10.5 -17.5t-1.5 -10t-19 -4.5h-27q-13 0 -18.5 3t-18.5 17l-182 201q-10 9 -7 15.5z" />
<glyph unicode="&#xc1;" horiz-adv-x="1372" d="M66.5 7q-5.5 7 3.5 24l739 1384q2 3 5.5 9t4.5 8t4.5 6t6 5t7.5 2t11 1h65q16 0 22 -7t9 -24l307 -1384q3 -17 -5 -24t-32 -7h-34q-38 0 -43 31l-97 448h-614l-238 -448q-15 -31 -53 -31h-39q-24 0 -29.5 7zM479 582h539l-152 737h-6zM817.5 1616.5q2.5 6.5 11.5 17.5 l156 191q7 10 13.5 14.5t11.5 5t16 0.5h86q16 0 19 -6.5t-7 -15.5l-211 -193q-16 -16 -26.5 -22t-26.5 -6h-20q-15 0 -20 4t-2.5 10.5z" />
<glyph unicode="&#xc2;" horiz-adv-x="1372" d="M66.5 7q-5.5 7 3.5 24l739 1384q2 3 5.5 9t4.5 8t4.5 6t6 5t7.5 2t11 1h65q16 0 22 -7t9 -24l307 -1384q3 -17 -5 -24t-32 -7h-34q-38 0 -43 31l-97 448h-614l-238 -448q-15 -31 -53 -31h-39q-24 0 -29.5 7zM479 582h539l-152 737h-6zM649 1594.5q3 6.5 13 17.5l215 246 q15 17 25.5 23.5t27.5 6.5h39q16 0 24.5 -7t16.5 -23l129 -246q7 -12 8.5 -18t-5 -9t-13.5 -3.5t-25 -0.5h-17q-17 0 -24 5.5t-16 25.5l-103 217h-6l-172 -217q-18 -21 -25.5 -26t-25.5 -5h-27q-17 0 -24 0.5t-12.5 3.5t-2.5 9.5z" />
<glyph unicode="&#xc3;" horiz-adv-x="1372" d="M66.5 7q-5.5 7 3.5 24l739 1384q2 3 5.5 9t4.5 8t4.5 6t6 5t7.5 2t11 1h65q16 0 22 -7t9 -24l307 -1384q3 -17 -5 -24t-32 -7h-34q-38 0 -43 31l-97 448h-614l-238 -448q-15 -31 -53 -31h-39q-24 0 -29.5 7zM479 582h539l-152 737h-6zM602 1612q0 56 42.5 95.5 t105.5 39.5q56 0 163 -53.5t158 -53.5q52 0 72 64q11 37 31 37q30 -2 30 -35q0 -57 -43 -96t-106 -39q-57 0 -163.5 53t-156.5 53q-51 0 -71 -65q-10 -35 -31 -35q-20 0 -25.5 9t-5.5 26z" />
<glyph unicode="&#xc4;" horiz-adv-x="1372" d="M66.5 7q-5.5 7 3.5 24l739 1384q2 3 5.5 9t4.5 8t4.5 6t6 5t7.5 2t11 1h65q16 0 22 -7t9 -24l307 -1384q3 -17 -5 -24t-32 -7h-34q-38 0 -43 31l-97 448h-614l-238 -448q-15 -31 -53 -31h-39q-24 0 -29.5 7zM479 582h539l-152 737h-6zM705 1616l16 96q3 19 10.5 25 t26.5 6h65q19 0 23.5 -6t1.5 -25l-17 -96q-3 -20 -9.5 -26.5t-24.5 -6.5h-66q-18 0 -23.5 7t-2.5 26zM1026 1616l16 96q3 19 10.5 25t26.5 6h66q18 0 22.5 -6t1.5 -25l-16 -96q-3 -19 -10 -26t-25 -7h-65q-18 0 -24 7.5t-3 25.5z" />
<glyph unicode="&#xc5;" horiz-adv-x="1372" d="M59.5 7q-5.5 7 3.5 24l740 1384q2 3 5.5 9t4.5 8t4.5 6t6 5t7.5 2t11 1h65q16 0 22 -7t9 -24l307 -1384q3 -17 -5 -24t-32 -7h-34q-39 0 -44 31l-96 448h-614l-238 -448q-15 -31 -53 -31h-39q-25 0 -30.5 7zM473 582h539l-152 737h-6zM729 1657q0 87 65.5 150t145.5 63 q75 0 120.5 -45.5t45.5 -114.5q0 -89 -63.5 -150t-151.5 -61q-69 0 -115.5 45.5t-46.5 112.5zM791 1663q0 -44 30 -74t76 -30q62 0 104.5 44.5t42.5 100.5q0 46 -30.5 76t-77.5 30q-62 0 -103.5 -45.5t-41.5 -101.5z" />
<glyph unicode="&#xc6;" horiz-adv-x="1843" d="M48.5 7q-5.5 7 4.5 24l875 1384q7 11 9.5 15t7.5 9t11 6t15 1h884q18 0 24 -6.5t3 -24.5l-6 -39q-3 -18 -11 -24t-26 -6h-749l49 -560h432q18 0 23.5 -6t2.5 -24l-6 -41q-3 -18 -11 -24.5t-26 -6.5h-407l49 -553q1 -19 11.5 -25t31.5 -6h426q18 0 24 -6t3 -24l-6 -39 q-3 -18 -11 -24.5t-26 -6.5h-514q-21 0 -31.5 6t-11.5 25l-37 456h-584l-299 -456q-19 -31 -55 -31h-39q-24 0 -29.5 7zM528 582h519l-52 716h-22z" />
<glyph unicode="&#xc7;" horiz-adv-x="1239" d="M68 561q0 127 28.5 256t87.5 248.5t141 212.5t197.5 149t247.5 56q259 0 367 -183h8l10 64q10 82 62 82q48 0 38 -82l-36 -260q-10 -82 -62 -82q-41 0 -41 57q0 42 -6 66q-31 113 -110.5 173t-227.5 60q-85 0 -161 -29t-133 -78.5t-105 -116.5t-80.5 -141.5t-55 -155 t-32.5 -156t-10 -144.5q0 -105 21.5 -192.5t64 -156t112.5 -107t162 -38.5q126 0 241.5 69.5t188.5 184.5q31 58 72 58q19 0 33 -12t14 -29q0 -28 -21 -58q-85 -139 -210.5 -223t-274.5 -94l-86 -98q26 10 61 10q59 0 101.5 -35.5t42.5 -101.5q0 -101 -68.5 -148t-171.5 -47 q-11 0 -30.5 2t-47 7.5t-46.5 19t-19 31.5q0 17 9.5 25.5t23.5 8.5q4 0 41.5 -7t78.5 -7q55 0 95.5 25.5t40.5 79.5q0 69 -99 69q-29 0 -61 -8q-19 -6 -31 -5t-22 15q-16 25 2 45l108 119q-214 13 -333 177.5t-119 424.5z" />
<glyph unicode="&#xc8;" horiz-adv-x="1048" d="M84 31l219 1382q3 19 10.5 26t26.5 7h719q19 0 25 -7t3 -24l-6 -37q-3 -18 -11 -25t-26 -7h-608q-19 0 -26.5 -7t-10.5 -26l-77 -498q-3 -19 1.5 -25t22.5 -6h416q19 0 25.5 -6.5t3.5 -23.5l-7 -37q-3 -19 -11 -26t-25 -7h-418q-17 0 -24.5 -7t-10.5 -24l-82 -520 q-3 -19 2.5 -25t24.5 -6h669q19 0 24.5 -6.5t2.5 -25.5l-6 -37q-3 -19 -11.5 -26t-25.5 -7h-782q-19 0 -24.5 6t-2.5 25zM581 1838.5q3 6.5 19 6.5h84q11 0 15 -0.5t8.5 -4t9.5 -11.5l127 -195q8 -12 10.5 -17.5t-1.5 -10t-19 -4.5h-27q-13 0 -18.5 3t-18.5 17l-182 201 q-10 9 -7 15.5z" />
<glyph unicode="&#xc9;" horiz-adv-x="1048" d="M84 31l219 1382q3 19 10.5 26t26.5 7h719q19 0 25 -7t3 -24l-6 -37q-3 -18 -11 -25t-26 -7h-608q-19 0 -26.5 -7t-10.5 -26l-77 -498q-3 -19 1.5 -25t22.5 -6h416q19 0 25.5 -6.5t3.5 -23.5l-7 -37q-3 -19 -11 -26t-25 -7h-418q-17 0 -24.5 -7t-10.5 -24l-82 -520 q-3 -19 2.5 -25t24.5 -6h669q19 0 24.5 -6.5t2.5 -25.5l-6 -37q-3 -19 -11.5 -26t-25.5 -7h-782q-19 0 -24.5 6t-2.5 25zM653 1614.5q-1 8.5 13 23.5l155 191q7 10 13.5 14.5t11.5 5t16 0.5h86q17 0 20 -6.5t-7 -15.5l-211 -193q-28 -28 -54 -28h-20q-22 0 -23 8.5z" />
<glyph unicode="&#xca;" horiz-adv-x="1048" d="M84 31l219 1382q3 19 10.5 26t26.5 7h719q19 0 25 -7t3 -24l-6 -37q-3 -18 -11 -25t-26 -7h-608q-19 0 -26.5 -7t-10.5 -26l-77 -498q-3 -19 1.5 -25t22.5 -6h416q19 0 25.5 -6.5t3.5 -23.5l-7 -37q-3 -19 -11 -26t-25 -7h-418q-17 0 -24.5 -7t-10.5 -24l-82 -520 q-3 -19 2.5 -25t24.5 -6h669q19 0 24.5 -6.5t2.5 -25.5l-6 -37q-3 -19 -11.5 -26t-25.5 -7h-782q-19 0 -24.5 6t-2.5 25zM485 1592.5q3 6.5 13 17.5l215 245q11 12 16.5 17.5t15 9.5t21.5 4h39q16 0 24.5 -7t16.5 -24l129 -245q7 -12 8.5 -18t-5 -9t-13.5 -3.5t-25 -0.5h-16 q-17 0 -24.5 5.5t-16.5 25.5l-103 217h-6l-172 -217q-18 -21 -25.5 -26t-25.5 -5h-27q-17 0 -24 0.5t-12.5 3.5t-2.5 9.5z" />
<glyph unicode="&#xcb;" horiz-adv-x="1048" d="M84 31l219 1382q3 19 10.5 26t26.5 7h719q19 0 25 -7t3 -24l-6 -37q-3 -18 -11 -25t-26 -7h-608q-19 0 -26.5 -7t-10.5 -26l-77 -498q-3 -19 1.5 -25t22.5 -6h416q19 0 25.5 -6.5t3.5 -23.5l-7 -37q-3 -19 -11 -26t-25 -7h-418q-17 0 -24.5 -7t-10.5 -24l-82 -520 q-3 -19 2.5 -25t24.5 -6h669q19 0 24.5 -6.5t2.5 -25.5l-6 -37q-3 -19 -11.5 -26t-25.5 -7h-782q-19 0 -24.5 6t-2.5 25zM512 1616l16 96q3 19 10.5 25t26.5 6h66q18 0 22.5 -6t1.5 -25l-16 -96q-3 -19 -10 -26t-25 -7h-65q-19 0 -24.5 7t-2.5 26zM834 1616l16 96 q3 19 10.5 25t26.5 6h65q19 0 23.5 -6t1.5 -25l-16 -96q-3 -19 -10 -26t-25 -7h-66q-17 0 -23 7t-3 26z" />
<glyph unicode="&#xcc;" horiz-adv-x="653" d="M-23 45q0 55 91 55h86q17 0 24 6.5t10 24.5l189 1182q1 18 -4 24t-23 6h-92q-74 0 -74 41q0 62 88 62h357q73 0 73 -41q0 -62 -90 -62h-88q-19 0 -26.5 -6t-8.5 -24l-188 -1182q-3 -17 2.5 -24t24.5 -7h104q74 0 74 -41q0 -59 -90 -59h-365q-74 0 -74 45zM308 1838.5 q3 6.5 20 6.5h84q10 0 14.5 -0.5t8.5 -4t9 -11.5l127 -195q8 -12 10.5 -17.5t-1.5 -10t-19 -4.5h-26q-13 0 -18.5 3t-18.5 17l-183 201q-10 9 -7 15.5z" />
<glyph unicode="&#xcd;" horiz-adv-x="653" d="M-23 45q0 55 91 55h86q17 0 24 6.5t10 24.5l189 1182q1 18 -4 24t-23 6h-92q-74 0 -74 41q0 62 88 62h357q73 0 73 -41q0 -62 -90 -62h-88q-19 0 -26.5 -6t-8.5 -24l-188 -1182q-3 -17 2.5 -24t24.5 -7h104q74 0 74 -41q0 -59 -90 -59h-365q-74 0 -74 45zM403 1610.5 q-1 8.5 13 23.5l155 191q7 10 13.5 14.5t11.5 5t16 0.5h86q17 0 20 -6.5t-7 -15.5l-211 -193q-28 -28 -54 -28h-20q-22 0 -23 8.5z" />
<glyph unicode="&#xce;" horiz-adv-x="653" d="M-23 45q0 55 91 55h86q17 0 24 6.5t10 24.5l189 1182q1 18 -4 24t-23 6h-92q-74 0 -74 41q0 62 88 62h357q73 0 73 -41q0 -62 -90 -62h-88q-19 0 -26.5 -6t-8.5 -24l-188 -1182q-3 -17 2.5 -24t24.5 -7h104q74 0 74 -41q0 -59 -90 -59h-365q-74 0 -74 45zM223 1592.5 q3 6.5 13 17.5l215 245q11 12 16.5 17.5t15 9.5t21.5 4h39q16 0 24.5 -7t16.5 -24l129 -245q7 -12 8.5 -18t-5 -9t-13.5 -3.5t-25 -0.5h-16q-17 0 -24.5 5.5t-16.5 25.5l-103 217h-6l-172 -217q-18 -21 -25.5 -26t-25.5 -5h-27q-17 0 -24 0.5t-12.5 3.5t-2.5 9.5z" />
<glyph unicode="&#xcf;" horiz-adv-x="653" d="M-23 45q0 55 91 55h86q17 0 24 6.5t10 24.5l189 1182q1 18 -4 24t-23 6h-92q-74 0 -74 41q0 62 88 62h357q73 0 73 -41q0 -62 -90 -62h-88q-19 0 -26.5 -6t-8.5 -24l-188 -1182q-3 -17 2.5 -24t24.5 -7h104q74 0 74 -41q0 -59 -90 -59h-365q-74 0 -74 45zM264 1616l17 96 q3 19 10 25t26 6h66q19 0 23.5 -6t1.5 -25l-17 -96q-3 -19 -10 -26t-25 -7h-65q-19 0 -24.5 7t-2.5 26zM586 1616l16 96q3 19 10.5 25t26.5 6h66q18 0 22.5 -6t1.5 -25l-16 -96q-3 -19 -10 -26t-25 -7h-66q-17 0 -23 7t-3 26z" />
<glyph unicode="&#xd0;" horiz-adv-x="1280" d="M-4 721l6 37q3 18 10 23t25 5h164l100 629q3 19 10.5 25t26.5 6h240q117 0 213.5 -21t162 -56t115.5 -84.5t78.5 -100t46 -110.5t23.5 -109t6 -101q0 -180 -57.5 -337t-164 -274.5t-268.5 -185t-360 -67.5h-264q-17 0 -22.5 7t-2.5 24l102 659h-163q-17 0 -23.5 7 t-3.5 24zM215 131q-3 -17 2.5 -24t22.5 -7h108q166 1 306 56.5t238.5 153.5t154 239t55.5 309q0 244 -140 364.5t-401 120.5h-123q-19 0 -26.5 -6t-10.5 -24l-84 -527h342q18 0 24 -6t3 -24l-6 -35q-3 -19 -9 -25t-26 -6h-342z" />
<glyph unicode="&#xd1;" horiz-adv-x="1339" d="M84 31l221 1384q3 18 10 24.5t25 6.5h88q18 0 22.5 -4.5t12.5 -26.5l479 -1276h8l203 1276q3 18 10 24.5t25 6.5h43q17 0 23 -7t3 -24l-219 -1384q-3 -18 -11 -24.5t-26 -6.5h-90q-16 0 -21.5 6t-12.5 25l-480 1263h-8l-201 -1263q-3 -19 -10 -25t-26 -6h-41 q-19 0 -24.5 6t-2.5 25zM520 1614q0 56 42.5 95.5t105.5 39.5q56 0 163 -53.5t158 -53.5q52 0 72 64q11 37 31 37q30 -2 30 -35q0 -57 -43 -96t-106 -39q-57 0 -163.5 53t-156.5 53q-51 0 -71 -65q-10 -35 -31 -35q-20 0 -25.5 9t-5.5 26z" />
<glyph unicode="&#xd2;" horiz-adv-x="1472" d="M72 567q0 133 34.5 265t103 249t162 207t221 142.5t271.5 52.5q250 0 393.5 -166t143.5 -440q0 -128 -33 -257.5t-100 -248t-159 -210.5t-221 -147t-276 -55q-247 0 -393.5 168.5t-146.5 439.5zM195 565q0 -84 15.5 -158t48.5 -137.5t81 -109t117.5 -71.5t154.5 -26 q115 0 220 47.5t184 128.5t138 184.5t89.5 219t30.5 229.5q0 106 -25 196t-75 160t-132 110t-188 40q-118 0 -224.5 -48t-184.5 -129t-135 -185.5t-86 -220.5t-29 -230zM745 1838.5q3 6.5 19 6.5h84q11 0 15 -0.5t8.5 -4t9.5 -11.5l127 -195q8 -12 10.5 -18t-2 -10t-19.5 -4 h-26q-13 0 -18.5 3t-18.5 17l-182 201q-10 9 -7 15.5z" />
<glyph unicode="&#xd3;" horiz-adv-x="1472" d="M72 567q0 133 34.5 265t103 249t162 207t221 142.5t271.5 52.5q250 0 393.5 -166t143.5 -440q0 -128 -33 -257.5t-100 -248t-159 -210.5t-221 -147t-276 -55q-247 0 -393.5 168.5t-146.5 439.5zM195 565q0 -84 15.5 -158t48.5 -137.5t81 -109t117.5 -71.5t154.5 -26 q115 0 220 47.5t184 128.5t138 184.5t89.5 219t30.5 229.5q0 106 -25 196t-75 160t-132 110t-188 40q-118 0 -224.5 -48t-184.5 -129t-135 -185.5t-86 -220.5t-29 -230zM876 1610.5q-1 8.5 13 23.5l155 191q7 10 13.5 14.5t11.5 5t16 0.5h86q17 0 20 -6.5t-7 -15.5 l-211 -193q-16 -16 -26.5 -22t-26.5 -6h-21q-22 0 -23 8.5z" />
<glyph unicode="&#xd4;" horiz-adv-x="1472" d="M72 567q0 133 34.5 265t103 249t162 207t221 142.5t271.5 52.5q250 0 393.5 -166t143.5 -440q0 -128 -33 -257.5t-100 -248t-159 -210.5t-221 -147t-276 -55q-247 0 -393.5 168.5t-146.5 439.5zM195 565q0 -84 15.5 -158t48.5 -137.5t81 -109t117.5 -71.5t154.5 -26 q115 0 220 47.5t184 128.5t138 184.5t89.5 219t30.5 229.5q0 106 -25 196t-75 160t-132 110t-188 40q-118 0 -224.5 -48t-184.5 -129t-135 -185.5t-86 -220.5t-29 -230zM700 1592.5q3 6.5 13 17.5l215 245q11 12 16.5 17.5t15 9.5t21.5 4h39q26 0 41 -31l129 -245 q7 -12 8.5 -18t-5 -9t-13.5 -3.5t-25 -0.5h-16q-17 0 -24.5 5.5t-16.5 25.5l-103 217h-6l-172 -217q-18 -21 -25.5 -26t-25.5 -5h-27q-17 0 -24 0.5t-12.5 3.5t-2.5 9.5z" />
<glyph unicode="&#xd5;" horiz-adv-x="1472" d="M72 567q0 133 34.5 265t103 249t162 207t221 142.5t271.5 52.5q250 0 393.5 -166t143.5 -440q0 -128 -33 -257.5t-100 -248t-159 -210.5t-221 -147t-276 -55q-247 0 -393.5 168.5t-146.5 439.5zM195 565q0 -84 15.5 -158t48.5 -137.5t81 -109t117.5 -71.5t154.5 -26 q115 0 220 47.5t184 128.5t138 184.5t89.5 219t30.5 229.5q0 106 -25 196t-75 160t-132 110t-188 40q-118 0 -224.5 -48t-184.5 -129t-135 -185.5t-86 -220.5t-29 -230zM647 1616q0 56 42.5 95.5t105.5 39.5q56 0 163 -53t158 -53q52 0 72 63q11 37 31 37q30 -2 30 -35 q0 -57 -43 -96t-106 -39q-57 0 -163.5 53t-156.5 53q-51 0 -71 -65q-11 -35 -31 -35t-25.5 9t-5.5 26z" />
<glyph unicode="&#xd6;" horiz-adv-x="1472" d="M72 567q0 133 34.5 265t103 249t162 207t221 142.5t271.5 52.5q250 0 393.5 -166t143.5 -440q0 -128 -33 -257.5t-100 -248t-159 -210.5t-221 -147t-276 -55q-247 0 -393.5 168.5t-146.5 439.5zM195 565q0 -84 15.5 -158t48.5 -137.5t81 -109t117.5 -71.5t154.5 -26 q115 0 220 47.5t184 128.5t138 184.5t89.5 219t30.5 229.5q0 106 -25 196t-75 160t-132 110t-188 40q-118 0 -224.5 -48t-184.5 -129t-135 -185.5t-86 -220.5t-29 -230zM733 1616l17 96q3 19 10 25t26 6h66q19 0 23.5 -6t1.5 -25l-17 -96q-3 -19 -10 -26t-25 -7h-65 q-19 0 -24.5 7t-2.5 26zM1055 1616l16 96q3 19 10.5 25t26.5 6h66q18 0 22.5 -6t1.5 -25l-16 -96q-3 -19 -10 -26t-25 -7h-66q-17 0 -23 7t-3 26z" />
<glyph unicode="&#xd7;" horiz-adv-x="1263" d="M84 55.5q1 9.5 16 22.5l469 434l-331 436q-22 28 2 45l20 17q15 12 24.5 11t20.5 -13l326 -430l479 434q12 12 21.5 13t21.5 -11l21 -21q11 -13 9 -22t-16 -23l-483 -440l334 -434q18 -28 -6 -47l-13 -11q-18 -13 -26.5 -14t-20.5 12l-329 430l-463 -430 q-15 -14 -25 -14.5t-22 12.5l-19 21q-11 13 -10 22.5z" />
<glyph unicode="&#xd8;" horiz-adv-x="1456" d="M50.5 -14.5q-0.5 9.5 10.5 22.5l125 146q-123 156 -123 411q0 128 33.5 257.5t101.5 248t161.5 210.5t223 147t275.5 55q209 0 348 -123l119 141q10 13 18.5 13t24.5 -11l21 -14q16 -13 15.5 -21.5t-13.5 -23.5l-123 -148q125 -159 125 -415q0 -129 -33 -259t-99.5 -249 t-159 -211.5t-221 -147.5t-274.5 -55q-216 0 -358 129l-119 -137q-22 -25 -45 -4l-18 16q-15 13 -15.5 22.5zM188 563q0 -189 76 -317l866 1024q-108 108 -282 108q-117 0 -223 -48t-184 -129.5t-136 -186t-87.5 -220.5t-29.5 -231zM319 174q108 -111 287 -111 q118 0 224.5 47.5t184.5 128.5t136 184.5t87.5 219t29.5 229.5q0 197 -82 328z" />
<glyph unicode="&#xd9;" horiz-adv-x="1294" d="M81 441q1 77 15 163l129 811q3 19 10.5 25t26.5 6h53q17 0 22.5 -6t2.5 -25l-123 -784q-8 -52 -12.5 -95.5t-5 -104.5t7.5 -108.5t29.5 -98.5t56 -84.5t91.5 -55t132 -21.5q384 0 477 568l125 784q3 19 10 25t27 6h51q19 0 24.5 -6t2.5 -25l-129 -811 q-17 -106 -43.5 -194.5t-73 -174.5t-109 -145t-155 -95t-207.5 -36q-98 0 -174.5 24.5t-125.5 69.5t-81 104t-43.5 133t-10.5 151zM591 1838.5q3 6.5 19 6.5h84q11 0 15 -0.5t8.5 -4t9.5 -11.5l127 -195q8 -12 10.5 -17.5t-1.5 -10t-19 -4.5h-27q-13 0 -18.5 3t-18.5 17 l-182 201q-10 9 -7 15.5z" />
<glyph unicode="&#xda;" horiz-adv-x="1294" d="M81 441q1 77 15 163l129 811q3 19 10.5 25t26.5 6h53q17 0 22.5 -6t2.5 -25l-123 -784q-8 -52 -12.5 -95.5t-5 -104.5t7.5 -108.5t29.5 -98.5t56 -84.5t91.5 -55t132 -21.5q384 0 477 568l125 784q3 19 10 25t27 6h51q19 0 24.5 -6t2.5 -25l-129 -811 q-17 -106 -43.5 -194.5t-73 -174.5t-109 -145t-155 -95t-207.5 -36q-98 0 -174.5 24.5t-125.5 69.5t-81 104t-43.5 133t-10.5 151zM679 1610.5q-1 8.5 13 23.5l156 191q7 10 13.5 14.5t11.5 5t16 0.5h86q16 0 19 -6.5t-7 -15.5l-211 -193q-16 -16 -26.5 -22t-26.5 -6h-21 q-22 0 -23 8.5z" />
<glyph unicode="&#xdb;" horiz-adv-x="1294" d="M81 441q1 77 15 163l129 811q3 19 10.5 25t26.5 6h53q17 0 22.5 -6t2.5 -25l-123 -784q-8 -52 -12.5 -95.5t-5 -104.5t7.5 -108.5t29.5 -98.5t56 -84.5t91.5 -55t132 -21.5q384 0 477 568l125 784q3 19 10 25t27 6h51q19 0 24.5 -6t2.5 -25l-129 -811 q-17 -106 -43.5 -194.5t-73 -174.5t-109 -145t-155 -95t-207.5 -36q-98 0 -174.5 24.5t-125.5 69.5t-81 104t-43.5 133t-10.5 151zM511 1594.5q3 6.5 13 17.5l215 246q15 17 26 23.5t28 6.5h38q16 0 24.5 -7t16.5 -23l129 -246q7 -12 8.5 -18t-4.5 -9t-13 -3.5t-25 -0.5h-17 q-17 0 -24.5 5.5t-16.5 25.5l-102 217h-6l-172 -217q-18 -21 -25.5 -26t-25.5 -5h-27q-17 0 -24 0.5t-13 3.5t-3 9.5z" />
<glyph unicode="&#xdc;" horiz-adv-x="1294" d="M81 441q1 77 15 163l129 811q3 19 10.5 25t26.5 6h53q17 0 22.5 -6t2.5 -25l-123 -784q-8 -52 -12.5 -95.5t-5 -104.5t7.5 -108.5t29.5 -98.5t56 -84.5t91.5 -55t132 -21.5q384 0 477 568l125 784q3 19 10 25t27 6h51q19 0 24.5 -6t2.5 -25l-129 -811 q-17 -106 -43.5 -194.5t-73 -174.5t-109 -145t-155 -95t-207.5 -36q-98 0 -174.5 24.5t-125.5 69.5t-81 104t-43.5 133t-10.5 151zM545 1616l16 96q3 19 10.5 25t26.5 6h66q18 0 22.5 -6t1.5 -25l-16 -96q-3 -19 -10 -26t-25 -7h-66q-18 0 -23.5 7t-2.5 26zM866 1616l17 96 q3 19 10.5 25t26.5 6h65q19 0 23.5 -6t1.5 -25l-17 -96q-3 -19 -10 -26t-25 -7h-65q-18 0 -24 7.5t-3 25.5z" />
<glyph unicode="&#xdd;" horiz-adv-x="1128" d="M51.5 1439q7.5 7 38.5 7h45q19 0 27 -6.5t16 -24.5l311 -702h9l501 702q22 31 54 31h57q33 0 37.5 -6t-10.5 -25l-580 -788q-16 -19 -20 -45l-88 -551q-3 -17 -10.5 -24t-24.5 -7h-52q-17 0 -23 7t-3 24l88 551q3 17 2 23.5t-8 21.5l-365 788q-9 17 -1.5 24zM565 1610.5 q-1 8.5 13 23.5l155 191q7 10 13.5 14.5t11.5 5t16 0.5h86q16 0 19 -6.5t-7 -15.5l-210 -193q-28 -28 -54 -28h-20q-22 0 -23 8.5z" />
<glyph unicode="&#xde;" horiz-adv-x="1024" d="M84 31l219 1384q3 19 9.5 25t23.5 6h53q19 0 24.5 -6t2.5 -25l-37 -239q-3 -20 1 -25.5t21 -5.5h113q114 0 195 -14.5t143 -49t92.5 -97t30.5 -153.5q0 -135 -42 -234t-120.5 -158.5t-182 -88t-235.5 -28.5h-123q-19 0 -26 -6t-10 -25l-41 -260q-3 -19 -10.5 -25 t-26.5 -6h-47q-18 0 -24 6.5t-3 24.5zM264 455q-3 -19 1.5 -26t21.5 -7h135q71 0 133.5 12.5t119.5 42t98 74t65 113.5t24 155q0 127 -76 175t-231 48h-168q-19 0 -25.5 -5.5t-9.5 -22.5z" />
<glyph unicode="&#xdf;" horiz-adv-x="1095" d="M31 -430l250 1589q12 76 42 135t67.5 93.5t85 57t90.5 30.5t87 8q39 0 73.5 -4t83.5 -22t83 -49t59 -90t25 -140q0 -114 -73 -216t-179 -131l-2 -4q50 -10 95 -34t85 -63.5t64 -102t24 -138.5q0 -159 -74 -279t-197 -180.5t-276 -60.5q-71 0 -71 37q0 53 86 53 q117 0 214.5 60t150.5 156t53 204q0 138 -82.5 218.5t-214.5 80.5h-11q-75 0 -75 39q0 51 90 51q127 0 206.5 92.5t79.5 225.5q0 57 -19.5 99t-44.5 62t-58.5 31.5t-50.5 13t-33 1.5q-69 0 -121.5 -19.5t-84 -54t-49 -72.5t-24.5 -84l-252 -1597q-3 -18 -11 -22.5t-28 -4.5 h-37q-18 0 -23.5 6.5t-2.5 24.5z" />
<glyph unicode="&#xe0;" horiz-adv-x="1077" d="M82 387q0 81 18.5 170t59 178t97 160t139.5 115.5t179 44.5q93 0 156.5 -49.5t93.5 -139.5h9l20 129q3 18 10.5 23.5t26.5 5.5h41q18 0 23.5 -7t2.5 -26l-127 -823q-10 -64 10 -92t60 -25q21 2 28 -1t11 -19l2 -11q4 -15 0 -23t-20 -15q-26 -13 -52 -13q-24 0 -47.5 7.5 t-48.5 26.5t-38 59t-9 96h-8q-120 -189 -301 -189q-153 0 -244.5 115t-91.5 303zM195 375q0 -142 54.5 -227t168.5 -85q96 0 172.5 59t120 150.5t66 190t22.5 190.5q0 140 -55.5 225t-168.5 85q-76 0 -141 -39t-108 -101t-73.5 -140.5t-44 -156.5t-13.5 -151zM460 1476 q3 7 19 7h84q14 0 20 -2.5t13 -14.5l127 -194q8 -12 10.5 -18t-1.5 -10.5t-19 -4.5h-27q-12 0 -18 3t-19 18l-182 200q-10 9 -7 16z" />
<glyph unicode="&#xe1;" horiz-adv-x="1077" d="M82 387q0 81 18.5 170t59 178t97 160t139.5 115.5t179 44.5q93 0 156.5 -49.5t93.5 -139.5h9l20 129q3 18 10.5 23.5t26.5 5.5h41q18 0 23.5 -7t2.5 -26l-127 -823q-10 -64 10 -92t60 -25q21 2 28 -1t11 -19l2 -11q4 -15 0 -23t-20 -15q-26 -13 -52 -13q-24 0 -47.5 7.5 t-48.5 26.5t-38 59t-9 96h-8q-120 -189 -301 -189q-153 0 -244.5 115t-91.5 303zM195 375q0 -142 54.5 -227t168.5 -85q96 0 172.5 59t120 150.5t66 190t22.5 190.5q0 140 -55.5 225t-168.5 85q-76 0 -141 -39t-108 -101t-73.5 -140.5t-44 -156.5t-13.5 -151zM567 1248 q-1 9 13 24l155 190q10 14 18 17.5t23 3.5h86q16 0 19 -7t-7 -16l-210 -192q-29 -29 -54 -29h-20q-22 0 -23 9z" />
<glyph unicode="&#xe2;" horiz-adv-x="1077" d="M82 387q0 81 18.5 170t59 178t97 160t139.5 115.5t179 44.5q93 0 156.5 -49.5t93.5 -139.5h9l20 129q3 18 10.5 23.5t26.5 5.5h41q18 0 23.5 -7t2.5 -26l-127 -823q-10 -64 10 -92t60 -25q21 2 28 -1t11 -19l2 -11q4 -15 0 -23t-20 -15q-26 -13 -52 -13q-24 0 -47.5 7.5 t-48.5 26.5t-38 59t-9 96h-8q-120 -189 -301 -189q-153 0 -244.5 115t-91.5 303zM195 375q0 -142 54.5 -227t168.5 -85q96 0 172.5 59t120 150.5t66 190t22.5 190.5q0 140 -55.5 225t-168.5 85q-76 0 -141 -39t-108 -101t-73.5 -140.5t-44 -156.5t-13.5 -151zM401 1188.5 q3 6.5 13 17.5l215 246q11 12 16.5 17.5t15 9.5t21.5 4h39q16 0 24.5 -7t16.5 -24l129 -246q7 -12 8.5 -18t-5.5 -8.5t-13 -3t-25 -0.5h-16q-18 0 -25 5t-16 25l-103 217h-6l-172 -217q-18 -21 -25.5 -25.5t-25.5 -4.5h-27q-18 0 -24 0.5t-12 3t-3 9z" />
<glyph unicode="&#xe3;" horiz-adv-x="1077" d="M82 387q0 81 18.5 170t59 178t97 160t139.5 115.5t179 44.5q93 0 156.5 -49.5t93.5 -139.5h9l20 129q3 18 10.5 23.5t26.5 5.5h41q18 0 23.5 -7t2.5 -26l-127 -823q-10 -64 10 -92t60 -25q21 2 28 -1t11 -19l2 -11q4 -15 0 -23t-20 -15q-26 -13 -52 -13q-24 0 -47.5 7.5 t-48.5 26.5t-38 59t-9 96h-8q-120 -189 -301 -189q-153 0 -244.5 115t-91.5 303zM195 375q0 -142 54.5 -227t168.5 -85q96 0 172.5 59t120 150.5t66 190t22.5 190.5q0 140 -55.5 225t-168.5 85q-76 0 -141 -39t-108 -101t-73.5 -140.5t-44 -156.5t-13.5 -151zM369 1278 q0 56 42.5 95.5t104.5 39.5q56 0 163.5 -53t158.5 -53t71 63q11 37 31 37q31 -2 31 -35q0 -57 -43.5 -96t-106.5 -39q-57 0 -163 53t-156 53q-52 0 -72 -65q-10 -35 -31 -35q-14 0 -21 5.5t-8 12t-1 17.5z" />
<glyph unicode="&#xe4;" horiz-adv-x="1077" d="M82 387q0 81 18.5 170t59 178t97 160t139.5 115.5t179 44.5q93 0 156.5 -49.5t93.5 -139.5h9l20 129q3 18 10.5 23.5t26.5 5.5h41q18 0 23.5 -7t2.5 -26l-127 -823q-10 -64 10 -92t60 -25q21 2 28 -1t11 -19l2 -11q4 -15 0 -23t-20 -15q-26 -13 -52 -13q-24 0 -47.5 7.5 t-48.5 26.5t-38 59t-9 96h-8q-120 -189 -301 -189q-153 0 -244.5 115t-91.5 303zM195 375q0 -142 54.5 -227t168.5 -85q96 0 172.5 59t120 150.5t66 190t22.5 190.5q0 140 -55.5 225t-168.5 85q-76 0 -141 -39t-108 -101t-73.5 -140.5t-44 -156.5t-13.5 -151zM442 1257 l17 97q3 18 10.5 24t26.5 6h65q19 0 23.5 -5.5t1.5 -24.5l-17 -97q-3 -19 -9.5 -25.5t-24.5 -6.5h-66q-19 0 -24.5 6.5t-2.5 25.5zM764 1257l16 97q3 18 10.5 24t26.5 6h66q19 0 23 -5.5t1 -24.5l-16 -97q-3 -19 -10 -25.5t-25 -6.5h-65q-18 0 -24 7t-3 25z" />
<glyph unicode="&#xe5;" horiz-adv-x="1077" d="M82 387q0 81 18.5 170t59 178t97 160t139.5 115.5t179 44.5q93 0 156.5 -49.5t93.5 -139.5h9l20 129q3 18 10.5 23.5t26.5 5.5h41q18 0 23.5 -7t2.5 -26l-127 -823q-10 -64 10 -92t60 -25q21 2 28 -1t11 -19l2 -11q4 -15 0 -23t-20 -15q-26 -13 -52 -13q-24 0 -47.5 7.5 t-48.5 26.5t-38 59t-9 96h-8q-120 -189 -301 -189q-153 0 -244.5 115t-91.5 303zM195 375q0 -142 54.5 -227t168.5 -85q96 0 172.5 59t120 150.5t66 190t22.5 190.5q0 140 -55.5 225t-168.5 85q-76 0 -141 -39t-108 -101t-73.5 -140.5t-44 -156.5t-13.5 -151zM498 1313 q0 87 65.5 150t145.5 63q75 0 120 -45.5t45 -114.5q0 -89 -63.5 -150t-151.5 -61q-69 0 -115 45t-46 113zM559 1319q0 -44 30.5 -74.5t76.5 -30.5q62 0 104.5 45t42.5 101q0 46 -30.5 76t-77.5 30q-62 0 -104 -46t-42 -101z" />
<glyph unicode="&#xe6;" horiz-adv-x="1632" d="M84 385q0 174 61 326.5t174.5 248t253.5 95.5q202 0 336 -201h9q145 201 346 201q128 0 207 -72t79 -190q0 -79 -30 -139t-76.5 -95t-112.5 -57t-128 -29.5t-134 -7.5q-57 0 -180 10q-6 -52 -6 -100q0 -141 54.5 -226.5t168.5 -85.5q75 0 123 16t114 52q48 25 64 25 q14 0 25.5 -11t11.5 -26q0 -33 -62 -70q-71 -43 -130.5 -61.5t-145.5 -18.5q-123 0 -205.5 79t-112.5 212h-8q-50 -129 -139.5 -210t-224.5 -81q-153 0 -242.5 113.5t-89.5 302.5zM195 369q0 -140 53.5 -223t167.5 -83q72 0 135 36t108 98.5t76 142.5t45 172q20 131 80 252 q-59 101 -128.5 150t-158.5 49q-85 0 -158.5 -55.5t-120.5 -143t-73 -191t-26 -204.5zM903 563q85 -10 174 -10q383 0 383 238q0 82 -52 127t-144 45q-132 0 -228 -113.5t-133 -286.5z" />
<glyph unicode="&#xe7;" horiz-adv-x="901" d="M74 385q0 172 64.5 326t178.5 249t248 95q169 0 264 -113q25 -28 25 -49q0 -14 -11 -25.5t-26 -11.5q-24 0 -57 29q-85 78 -195 78q-88 0 -162.5 -55t-121 -142.5t-72 -190.5t-25.5 -204q0 -140 55.5 -224t168.5 -84q75 0 123 16t114 52q48 25 66 25q14 0 24 -11t10 -26 q0 -33 -59 -70q-65 -39 -120 -57.5t-130 -22.5l-86 -98q27 10 62 10q59 0 101 -35.5t42 -101.5q0 -101 -68.5 -148t-171.5 -47q-11 0 -30.5 2t-47 7.5t-46.5 19t-19 31.5q0 17 10 26t23 9q4 0 42 -7.5t79 -7.5q55 0 95 25.5t40 79.5q0 69 -99 69q-29 0 -61 -8q-19 -6 -31 -5 t-22 15q-16 25 2 45l108 121q-132 19 -208 130.5t-76 283.5z" />
<glyph unicode="&#xe8;" horiz-adv-x="923" d="M72 387q0 83 19 173t60 178.5t97.5 159t139 114t177.5 43.5q132 0 212.5 -74.5t80.5 -196.5q0 -77 -30.5 -135.5t-77.5 -92.5t-114.5 -55.5t-130 -28.5t-134.5 -7q-59 0 -181 10q-6 -53 -6 -100q0 -141 55 -226.5t169 -85.5q75 0 123 16t114 52q48 25 64 25q14 0 25 -11 t11 -26q0 -34 -61 -70q-71 -43 -130.5 -61.5t-145.5 -18.5q-154 0 -245 114.5t-91 303.5zM205 563q88 -10 182 -10q375 0 375 233q0 82 -52.5 129.5t-144.5 47.5q-132 0 -227.5 -113t-132.5 -287zM419 1476q3 7 19 7h84q14 0 20 -2.5t13 -14.5l127 -194q8 -12 10.5 -18 t-1.5 -10.5t-19 -4.5h-27q-12 0 -18 3t-19 18l-182 200q-10 9 -7 16z" />
<glyph unicode="&#xe9;" horiz-adv-x="923" d="M72 387q0 83 19 173t60 178.5t97.5 159t139 114t177.5 43.5q132 0 212.5 -74.5t80.5 -196.5q0 -77 -30.5 -135.5t-77.5 -92.5t-114.5 -55.5t-130 -28.5t-134.5 -7q-59 0 -181 10q-6 -53 -6 -100q0 -141 55 -226.5t169 -85.5q75 0 123 16t114 52q48 25 64 25q14 0 25 -11 t11 -26q0 -34 -61 -70q-71 -43 -130.5 -61.5t-145.5 -18.5q-154 0 -245 114.5t-91 303.5zM205 563q88 -10 182 -10q375 0 375 233q0 82 -52.5 129.5t-144.5 47.5q-132 0 -227.5 -113t-132.5 -287zM524 1248q-1 9 13 24l155 190q10 14 18 17.5t23 3.5h86q16 0 19 -7t-7 -16 l-210 -192q-29 -29 -54 -29h-20q-22 0 -23 9z" />
<glyph unicode="&#xea;" horiz-adv-x="923" d="M72 387q0 83 19 173t60 178.5t97.5 159t139 114t177.5 43.5q132 0 212.5 -74.5t80.5 -196.5q0 -77 -30.5 -135.5t-77.5 -92.5t-114.5 -55.5t-130 -28.5t-134.5 -7q-59 0 -181 10q-6 -53 -6 -100q0 -141 55 -226.5t169 -85.5q75 0 123 16t114 52q48 25 64 25q14 0 25 -11 t11 -26q0 -34 -61 -70q-71 -43 -130.5 -61.5t-145.5 -18.5q-154 0 -245 114.5t-91 303.5zM205 563q88 -10 182 -10q375 0 375 233q0 82 -52.5 129.5t-144.5 47.5q-132 0 -227.5 -113t-132.5 -287zM354 1188.5q3 6.5 13 17.5l215 246q11 12 16.5 17.5t15 9.5t21.5 4h39 q26 0 41 -31l129 -246q7 -12 8.5 -18t-5.5 -8.5t-13 -3t-25 -0.5h-16q-18 0 -25 5t-16 25l-103 217h-6l-172 -217q-18 -21 -25.5 -25.5t-25.5 -4.5h-27q-18 0 -24 0.5t-12 3t-3 9z" />
<glyph unicode="&#xeb;" horiz-adv-x="923" d="M72 387q0 83 19 173t60 178.5t97.5 159t139 114t177.5 43.5q132 0 212.5 -74.5t80.5 -196.5q0 -77 -30.5 -135.5t-77.5 -92.5t-114.5 -55.5t-130 -28.5t-134.5 -7q-59 0 -181 10q-6 -53 -6 -100q0 -141 55 -226.5t169 -85.5q75 0 123 16t114 52q48 25 64 25q14 0 25 -11 t11 -26q0 -34 -61 -70q-71 -43 -130.5 -61.5t-145.5 -18.5q-154 0 -245 114.5t-91 303.5zM205 563q88 -10 182 -10q375 0 375 233q0 82 -52.5 129.5t-144.5 47.5q-132 0 -227.5 -113t-132.5 -287zM379 1257l16 97q3 18 10.5 24t26.5 6h66q19 0 23 -5.5t1 -24.5l-16 -97 q-3 -19 -10 -25.5t-25 -6.5h-65q-19 0 -24.5 6.5t-2.5 25.5zM700 1257l17 97q3 18 10.5 24t26.5 6h65q19 0 23.5 -5.5t1.5 -24.5l-17 -97q-3 -19 -9.5 -25.5t-24.5 -6.5h-66q-18 0 -24 7t-3 25z" />
<glyph unicode="&#xec;" horiz-adv-x="563" d="M125 971q0 53 90 53h166q20 0 25 -6.5t2 -24.5l-132 -825q-10 -64 13.5 -92t66.5 -25q22 2 29 -1t10 -21l2 -11q4 -15 0 -23t-20 -15q-29 -11 -53 -11q-17 0 -34 3t-37.5 12.5t-35 25.5t-27 42t-13.5 63t5 88l109 698q3 19 -1.5 25t-23.5 6h-67q-74 0 -74 39zM175 1476 q3 7 20 7h84q14 0 19.5 -2.5t12.5 -14.5l127 -194q8 -12 10.5 -18t-1.5 -10.5t-19 -4.5h-27q-12 0 -17.5 3t-18.5 18l-183 200q-10 9 -7 16z" />
<glyph unicode="&#xed;" horiz-adv-x="563" d="M125 971q0 53 90 53h166q20 0 25 -6.5t2 -24.5l-132 -825q-10 -64 13.5 -92t66.5 -25q22 2 29 -1t10 -21l2 -11q4 -15 0 -23t-20 -15q-29 -11 -53 -11q-17 0 -34 3t-37.5 12.5t-35 25.5t-27 42t-13.5 63t5 88l109 698q3 19 -1.5 25t-23.5 6h-67q-74 0 -74 39zM223 1248 q-1 9 13 24l155 190q10 14 18 17.5t23 3.5h86q16 0 19 -7t-7 -16l-211 -192q-17 -17 -27 -23t-26 -6h-20q-22 0 -23 9z" />
<glyph unicode="&#xee;" horiz-adv-x="563" d="M63 1188.5q3 6.5 13 17.5l215 246q11 12 16.5 17.5t15 9.5t21.5 4h39q16 0 24.5 -7t16.5 -24l129 -246q7 -12 8.5 -18t-5.5 -8.5t-13 -3t-25 -0.5h-16q-18 0 -25 5t-16 25l-103 217h-6l-172 -217q-18 -21 -25.5 -25.5t-25.5 -4.5h-27q-18 0 -24 0.5t-12 3t-3 9zM125 971 q0 53 90 53h166q20 0 25 -6.5t2 -24.5l-132 -825q-10 -64 13.5 -92t66.5 -25q22 2 29 -1t10 -21l2 -11q4 -15 0 -23t-20 -15q-29 -11 -53 -11q-17 0 -34 3t-37.5 12.5t-35 25.5t-27 42t-13.5 63t5 88l109 698q3 19 -1.5 25t-23.5 6h-67q-74 0 -74 39z" />
<glyph unicode="&#xef;" horiz-adv-x="563" d="M104 1257l17 97q3 18 10.5 24t26.5 6h65q19 0 23.5 -5.5t1.5 -24.5l-17 -97q-3 -19 -9.5 -25.5t-24.5 -6.5h-66q-19 0 -24.5 6.5t-2.5 25.5zM125 971q0 53 90 53h166q20 0 25 -6.5t2 -24.5l-132 -825q-10 -64 13.5 -92t66.5 -25q22 2 29 -1t10 -21l2 -11q4 -15 0 -23 t-20 -15q-29 -11 -53 -11q-17 0 -34 3t-37.5 12.5t-35 25.5t-27 42t-13.5 63t5 88l109 698q3 19 -1.5 25t-23.5 6h-67q-74 0 -74 39zM426 1257l16 97q3 18 10.5 24t26.5 6h66q19 0 23 -5.5t1 -24.5l-16 -97q-3 -19 -10 -25.5t-25 -6.5h-65q-18 0 -24 7t-3 25z" />
<glyph unicode="&#xf0;" horiz-adv-x="1019" d="M84 387q0 172 65 325.5t180 248t249 94.5q149 0 210 -119h9q-41 261 -244 414l-238 -131q-17 -9 -25.5 -7.5t-17.5 15.5l-14 20q-19 25 16 43l203 111q-113 67 -241 94q-20 3 -25 8t-2 23l6 37q3 20 10 27t25 3q188 -38 338 -133l243 131q14 7 21 5.5t16 -15.5l13 -20 q16 -26 -15 -43l-204 -113q262 -228 262 -633q0 -119 -18.5 -232.5t-59 -217.5t-98.5 -182t-142.5 -124.5t-185.5 -46.5q-153 0 -244.5 115t-91.5 303zM195 375q0 -141 55.5 -226.5t169.5 -85.5q96 0 172.5 59t120 150.5t66 190t22.5 190.5q0 140 -55 225t-168 85 q-88 0 -162.5 -54.5t-121.5 -141t-73 -189t-26 -203.5z" />
<glyph unicode="&#xf1;" horiz-adv-x="1103" d="M115 31l153 962q3 19 10 25t27 6h41q18 0 22.5 -6.5t2.5 -26.5l-21 -129h6q56 85 140 139t186 54q57 0 100.5 -15.5t70.5 -40.5t44 -62.5t24 -75t7 -85t-4 -85t-11 -81.5l-71 -444q-10 -64 10.5 -92t62.5 -25q19 2 25 -1t12 -19l4 -11q11 -27 -20 -38q-29 -11 -53 -11 q-21 0 -40.5 5t-43 19t-36 40t-20 68t4.5 102l63 401q4 25 6 40t5 46t3 52.5t-2.5 52t-9 51.5t-18.5 44.5t-29.5 37.5t-44 23.5t-59.5 9.5q-81 0 -146.5 -37.5t-109.5 -105t-72.5 -149.5t-44.5 -182l-74 -460q-3 -18 -11 -22.5t-28 -4.5h-35q-18 0 -23.5 6.5t-2.5 24.5z M362 1278q0 56 42.5 95.5t105.5 39.5q56 0 163 -53t158 -53q52 0 72 63q11 37 31 37q31 -2 31 -35q0 -57 -43.5 -96t-106.5 -39q-57 0 -163 53t-156 53q-52 0 -72 -65q-10 -35 -31 -35q-20 0 -25.5 9t-5.5 26z" />
<glyph unicode="&#xf2;" horiz-adv-x="993" d="M82 387q0 175 63 328t177 246.5t253 93.5q153 0 243.5 -113t90.5 -301q0 -128 -37.5 -250t-102 -215t-157 -150t-194.5 -57q-153 0 -244.5 115t-91.5 303zM193 375q0 -141 55.5 -226.5t169.5 -85.5q88 0 162 53.5t120 139.5t71.5 187t25.5 202q0 143 -55.5 230.5 t-166.5 87.5q-88 0 -162 -54.5t-121 -141t-73 -189t-26 -203.5zM425 1476q3 7 19 7h84q14 0 20 -2.5t13 -14.5l127 -194q8 -12 10.5 -18t-1.5 -10.5t-19 -4.5h-27q-12 0 -18 3t-19 18l-182 200q-10 9 -7 16z" />
<glyph unicode="&#xf3;" horiz-adv-x="993" d="M82 387q0 175 63 328t177 246.5t253 93.5q153 0 243.5 -113t90.5 -301q0 -128 -37.5 -250t-102 -215t-157 -150t-194.5 -57q-153 0 -244.5 115t-91.5 303zM193 375q0 -141 55.5 -226.5t169.5 -85.5q88 0 162 53.5t120 139.5t71.5 187t25.5 202q0 143 -55.5 230.5 t-166.5 87.5q-88 0 -162 -54.5t-121 -141t-73 -189t-26 -203.5zM526 1248q-1 9 13 24l155 190q10 14 18 17.5t23 3.5h86q17 0 20 -7t-7 -16l-211 -192q-29 -29 -54 -29h-20q-22 0 -23 9z" />
<glyph unicode="&#xf4;" horiz-adv-x="993" d="M82 387q0 175 63 328t177 246.5t253 93.5q153 0 243.5 -113t90.5 -301q0 -128 -37.5 -250t-102 -215t-157 -150t-194.5 -57q-153 0 -244.5 115t-91.5 303zM193 375q0 -141 55.5 -226.5t169.5 -85.5q88 0 162 53.5t120 139.5t71.5 187t25.5 202q0 143 -55.5 230.5 t-166.5 87.5q-88 0 -162 -54.5t-121 -141t-73 -189t-26 -203.5zM364 1188.5q3 6.5 13 17.5l215 246q11 12 16.5 17.5t15 9.5t21.5 4h39q26 0 41 -31l129 -246q7 -12 8.5 -18t-5.5 -8.5t-13 -3t-25 -0.5h-16q-18 0 -25 5t-16 25l-103 217h-6l-172 -217q-18 -21 -25.5 -25.5 t-25.5 -4.5h-27q-18 0 -24 0.5t-12 3t-3 9z" />
<glyph unicode="&#xf5;" horiz-adv-x="993" d="M82 387q0 175 63 328t177 246.5t253 93.5q153 0 243.5 -113t90.5 -301q0 -128 -37.5 -250t-102 -215t-157 -150t-194.5 -57q-153 0 -244.5 115t-91.5 303zM193 375q0 -141 55.5 -226.5t169.5 -85.5q88 0 162 53.5t120 139.5t71.5 187t25.5 202q0 143 -55.5 230.5 t-166.5 87.5q-88 0 -162 -54.5t-121 -141t-73 -189t-26 -203.5zM307 1278q0 56 42.5 95.5t105.5 39.5q56 0 163 -53t158 -53q52 0 72 63q11 37 31 37q30 -2 30 -35q0 -57 -43 -96t-106 -39q-57 0 -163.5 53t-156.5 53q-51 0 -71 -65q-11 -35 -31 -35t-25.5 9t-5.5 26z" />
<glyph unicode="&#xf6;" horiz-adv-x="993" d="M80 387q0 175 63 328t177 246.5t253 93.5q153 0 243.5 -113t90.5 -301q0 -128 -37.5 -250t-102 -215t-157 -150t-194.5 -57q-153 0 -244.5 115t-91.5 303zM190 375q0 -141 56 -226.5t170 -85.5q88 0 162 53.5t120 139.5t71.5 187t25.5 202q0 143 -55.5 230.5t-166.5 87.5 q-88 0 -162.5 -54.5t-121.5 -141t-73 -189t-26 -203.5zM418 1257l16 97q3 18 10.5 24t26.5 6h66q19 0 23 -5.5t1 -24.5l-16 -97q-3 -19 -10 -25.5t-25 -6.5h-66q-19 0 -24 6.5t-2 25.5zM739 1257l17 97q3 18 10.5 24t26.5 6h65q19 0 23.5 -5.5t1.5 -24.5l-17 -97 q-3 -19 -10 -25.5t-25 -6.5h-65q-18 0 -24 7t-3 25z" />
<glyph unicode="&#xf7;" horiz-adv-x="1159" d="M104 512l9 45q1 18 8.5 24.5t25.5 6.5h879q17 0 22.5 -6t4.5 -25l-9 -45q-3 -18 -10 -24.5t-24 -6.5h-879q-17 0 -23.5 7t-3.5 24zM457 186l14 93q3 18 10 24t25 6h78q19 0 24 -5.5t2 -24.5l-14 -93q-3 -19 -10.5 -25.5t-26.5 -6.5h-78q-17 0 -22 6.5t-2 25.5zM539 788 l16 93q3 19 10.5 25.5t24.5 6.5h78q19 0 24 -6.5t2 -25.5l-16 -93q-1 -18 -8.5 -24t-26.5 -6h-78q-17 0 -22 5.5t-4 24.5z" />
<glyph unicode="&#xf8;" horiz-adv-x="1056" d="M-40.5 -19q0.5 10 13.5 23l191 197q-31 91 -31 184q0 81 19 170.5t60 178.5t97.5 160.5t140 116t179.5 44.5q156 0 248 -119l131 135q22 25 45 4l16 -14q22 -19 -2 -43l-149 -154q45 -98 45 -225q0 -81 -19 -170.5t-59.5 -178.5t-96.5 -160.5t-139 -116t-178 -44.5 q-179 0 -272 152l-166 -172q-26 -23 -45 -4l-17 14q-12 12 -11.5 22zM246 373q0 -45 6 -82l551 569q-60 103 -174 103q-77 0 -142.5 -39.5t-108.5 -102t-74 -142t-44.5 -157t-13.5 -149.5zM274 199q55 -136 197 -136q71 0 134 38.5t107 100.5t76 139t47 155.5t15 148.5 q0 76 -14 133z" />
<glyph unicode="&#xf9;" horiz-adv-x="1064" d="M114 246q0 47 4 84.5t11 81.5l90 581q3 19 10 25t27 6h41q18 0 22.5 -6.5t2.5 -26.5l-91 -573l-6 -40.5t-5.5 -46t-3.5 -53t2 -52t8.5 -51.5t18.5 -44t29 -37.5t42.5 -23t58.5 -9.5q66 0 122 25t97.5 68.5t74 104.5t53 129t32.5 147l73 462q3 17 11.5 22t27.5 5h37 q19 0 24.5 -6t2.5 -25l-133 -827q-10 -64 10.5 -92t62.5 -25q20 2 28 -1t11 -19l2 -11q3 -15 -1 -22t-21 -16q-19 -11 -51 -11q-26 0 -49.5 7t-48.5 25.5t-38 58.5t-8 98h-8q-53 -84 -138 -136.5t-188 -52.5q-57 0 -101 15.5t-71 40.5t-44 62.5t-23.5 74.5t-6.5 84z M442 1476q3 7 19 7h84q14 0 20 -2.5t13 -14.5l127 -194q8 -12 10.5 -18t-2 -10.5t-19.5 -4.5h-26q-12 0 -18 3t-19 18l-182 200q-10 9 -7 16z" />
<glyph unicode="&#xfa;" horiz-adv-x="1064" d="M114 246q0 47 4 84.5t11 81.5l90 581q3 19 10 25t27 6h41q18 0 22.5 -6.5t2.5 -26.5l-91 -573l-6 -40.5t-5.5 -46t-3.5 -53t2 -52t8.5 -51.5t18.5 -44t29 -37.5t42.5 -23t58.5 -9.5q66 0 122 25t97.5 68.5t74 104.5t53 129t32.5 147l73 462q3 17 11.5 22t27.5 5h37 q19 0 24.5 -6t2.5 -25l-133 -827q-10 -64 10.5 -92t62.5 -25q20 2 28 -1t11 -19l2 -11q3 -15 -1 -22t-21 -16q-19 -11 -51 -11q-26 0 -49.5 7t-48.5 25.5t-38 58.5t-8 98h-8q-53 -84 -138 -136.5t-188 -52.5q-57 0 -101 15.5t-71 40.5t-44 62.5t-23.5 74.5t-6.5 84z M509 1248q-1 9 13 24l156 190q10 14 18 17.5t23 3.5h86q16 0 19 -7t-7 -16l-211 -192q-17 -17 -27 -23t-26 -6h-21q-22 0 -23 9z" />
<glyph unicode="&#xfb;" horiz-adv-x="1064" d="M114 246q0 47 4 84.5t11 81.5l90 581q3 19 10 25t27 6h41q18 0 22.5 -6.5t2.5 -26.5l-91 -573l-6 -40.5t-5.5 -46t-3.5 -53t2 -52t8.5 -51.5t18.5 -44t29 -37.5t42.5 -23t58.5 -9.5q66 0 122 25t97.5 68.5t74 104.5t53 129t32.5 147l73 462q3 17 11.5 22t27.5 5h37 q19 0 24.5 -6t2.5 -25l-133 -827q-10 -64 10.5 -92t62.5 -25q20 2 28 -1t11 -19l2 -11q3 -15 -1 -22t-21 -16q-19 -11 -51 -11q-26 0 -49.5 7t-48.5 25.5t-38 58.5t-8 98h-8q-53 -84 -138 -136.5t-188 -52.5q-57 0 -101 15.5t-71 40.5t-44 62.5t-23.5 74.5t-6.5 84z M354 1188.5q3 6.5 13 17.5l215 246q11 12 16.5 17.5t15 9.5t21.5 4h39q26 0 41 -31l129 -246q7 -12 8.5 -18t-5.5 -8.5t-13 -3t-25 -0.5h-16q-18 0 -25 5t-16 25l-103 217h-6l-172 -217q-18 -21 -25.5 -25.5t-25.5 -4.5h-27q-18 0 -24 0.5t-12 3t-3 9z" />
<glyph unicode="&#xfc;" horiz-adv-x="1064" d="M114 246q0 47 4 84.5t11 81.5l90 581q3 19 10 25t27 6h41q18 0 22.5 -6.5t2.5 -26.5l-91 -573l-6 -40.5t-5.5 -46t-3.5 -53t2 -52t8.5 -51.5t18.5 -44t29 -37.5t42.5 -23t58.5 -9.5q66 0 122 25t97.5 68.5t74 104.5t53 129t32.5 147l73 462q3 17 11.5 22t27.5 5h37 q19 0 24.5 -6t2.5 -25l-133 -827q-10 -64 10.5 -92t62.5 -25q20 2 28 -1t11 -19l2 -11q3 -15 -1 -22t-21 -16q-19 -11 -51 -11q-26 0 -49.5 7t-48.5 25.5t-38 58.5t-8 98h-8q-53 -84 -138 -136.5t-188 -52.5q-57 0 -101 15.5t-71 40.5t-44 62.5t-23.5 74.5t-6.5 84z M391 1257l17 97q3 19 10 24.5t26 5.5h66q19 0 23.5 -5.5t1.5 -24.5l-17 -97q-3 -19 -10 -25.5t-25 -6.5h-65q-19 0 -24.5 6.5t-2.5 25.5zM713 1257l16 97q3 18 10.5 24t26.5 6h65q19 0 23.5 -5.5t1.5 -24.5l-16 -97q-3 -19 -10 -25.5t-25 -6.5h-66q-18 0 -23.5 7t-2.5 25z " />
<glyph unicode="&#xfd;" horiz-adv-x="940" d="M64.5 -455.5q-6.5 5.5 1.5 25.5l200 385q12 24 8 51l-161 987q-3 18 4 24.5t26 6.5h39q38 0 43 -31l123 -872h8l428 870q9 19 18 26t27 7h54q23 0 29 -7t-3 -24l-737 -1423q-9 -19 -18.5 -25t-28.5 -6h-33q-21 0 -27.5 5.5zM473.5 1254.5q2.5 6.5 11.5 17.5l156 190 q10 14 18 17.5t23 3.5h86q16 0 19 -7t-7 -16l-211 -192q-17 -17 -27 -23t-26 -6h-20q-15 0 -20 4.5t-2.5 11z" />
<glyph unicode="&#xfe;" horiz-adv-x="1107" d="M63 -430l310 1884q3 19 10 25t27 6h41q18 0 22 -6.5t2 -26.5l-98 -586h6q50 88 134.5 138.5t164.5 50.5q153 0 243.5 -113t90.5 -301q0 -79 -18.5 -168t-58 -179t-95 -162t-137 -117.5t-175.5 -45.5q-86 0 -156.5 55t-99.5 148h-8l-102 -602q-3 -18 -10 -24.5t-25 -6.5 h-43q-17 0 -22.5 6t-2.5 25zM305 393q0 -144 57 -237t162 -93q90 0 165.5 59.5t121 151t70 191t24.5 188.5q0 139 -56 224.5t-167 85.5q-93 0 -168.5 -56.5t-119 -144.5t-66.5 -183.5t-23 -185.5z" />
<glyph unicode="&#xff;" horiz-adv-x="940" d="M64.5 -455.5q-6.5 5.5 1.5 25.5l200 385q12 24 8 51l-161 987q-3 18 4 24.5t26 6.5h39q38 0 43 -31l123 -872h8l428 870q9 19 18 26t27 7h54q23 0 29 -7t-3 -24l-737 -1423q-9 -19 -18.5 -25t-28.5 -6h-33q-21 0 -27.5 5.5zM326 1257l16 97q3 18 10.5 24t26.5 6h65 q19 0 23.5 -5.5t1.5 -24.5l-16 -97q-3 -19 -10 -25.5t-25 -6.5h-66q-19 0 -24 6.5t-2 25.5zM647 1257l17 97q3 19 10 24.5t26 5.5h66q19 0 23.5 -5.5t1.5 -24.5l-17 -97q-3 -19 -10 -25.5t-25 -6.5h-65q-18 0 -24 7t-3 25z" />
<glyph unicode="&#x152;" horiz-adv-x="1746" d="M78 561q0 124 31 252.5t95.5 248.5t153 214t213.5 150.5t267 56.5q100 0 180 -19q81 -18 119 -18h622q18 0 24 -6.5t3 -24.5l-6 -35q-3 -18 -11 -24t-26 -6h-543q-19 0 -25.5 -6t-9.5 -25l-78 -504q-3 -17 1.5 -23t23.5 -6h389q18 0 24 -6t3 -24l-6 -35q-3 -18 -11 -24.5 t-26 -6.5h-391q-17 0 -23.5 -6t-9.5 -25l-82 -530q-3 -18 2 -24.5t23 -6.5h579q18 0 24 -6t3 -24l-6 -37q-3 -18 -11 -24.5t-26 -6.5h-701q-13 0 -39.5 -7t-35.5 -9q-103 -23 -199 -23q-238 0 -376 166t-138 434zM203 569q0 -106 24.5 -195.5t73 -159t128 -109t181.5 -39.5 q107 0 219 28q19 5 25.5 10t9.5 21l191 1198q1 17 -4 22.5t-23 10.5q-77 22 -207 22q-96 0 -183 -35t-153.5 -95.5t-120.5 -140t-89 -170t-53.5 -184.5t-18.5 -184z" />
<glyph unicode="&#x153;" horiz-adv-x="1644" d="M84 387q0 81 18.5 170t59 178t97 160t139.5 115.5t180 44.5q107 0 188.5 -70.5t116.5 -198.5h8q62 124 163.5 196.5t217.5 72.5q129 0 208 -74.5t79 -196.5q0 -77 -30 -135.5t-76.5 -92.5t-113 -55.5t-128.5 -28.5t-134 -7q-57 0 -180 10q-6 -52 -6 -100 q0 -141 54.5 -226.5t168.5 -85.5q52 0 95 10.5t65.5 21.5t71.5 38q48 25 63 25q39 0 39 -39q0 -33 -62 -70q-73 -44 -129.5 -62t-142.5 -18q-117 0 -201 70t-106 186h-8q-61 -117 -163 -186.5t-216 -69.5q-153 0 -244.5 115t-91.5 303zM195 375q0 -141 55.5 -226.5 t169.5 -85.5q76 0 141 38.5t108 99.5t73 138.5t43.5 155t13.5 150.5q0 143 -55.5 230.5t-165.5 87.5q-77 0 -142.5 -39.5t-108.5 -101.5t-74 -141t-44.5 -157t-13.5 -149zM911 563q85 -10 174 -10q383 0 383 238q0 82 -52 127t-144 45q-132 0 -228 -113.5t-133 -286.5z" />
<glyph unicode="&#x178;" horiz-adv-x="1128" d="M51.5 1439q7.5 7 38.5 7h45q19 0 27 -6.5t16 -24.5l311 -702h9l501 702q22 31 54 31h57q33 0 37.5 -6t-10.5 -25l-580 -788q-16 -19 -20 -45l-88 -551q-3 -17 -10.5 -24t-24.5 -7h-52q-17 0 -23 7t-3 24l88 551q3 17 2 23.5t-8 21.5l-365 788q-9 17 -1.5 24zM418 1616 l16 96q3 19 10.5 25t26.5 6h66q18 0 22.5 -6t1.5 -25l-16 -96q-3 -19 -10 -26t-25 -7h-66q-18 0 -23.5 7t-2.5 26zM739 1616l17 96q3 19 10.5 25t26.5 6h65q19 0 23.5 -6t1.5 -25l-17 -96q-3 -19 -10 -26t-25 -7h-65q-18 0 -24 7.5t-3 25.5z" />
<glyph unicode="&#x2c6;" horiz-adv-x="493" d="M-19 1151.5q3 6.5 13 17.5l215 246q11 12 16.5 17.5t15 9.5t21.5 4h39q16 0 24.5 -7t16.5 -24l129 -246q7 -12 8.5 -18t-5.5 -8.5t-13 -3t-25 -0.5h-16q-18 0 -25 5t-16 25l-103 217h-6l-172 -217q-18 -21 -25.5 -25.5t-25.5 -4.5h-27q-18 0 -24 0.5t-12 3t-3 9z" />
<glyph unicode="&#x2dc;" horiz-adv-x="966" d="M184 1278q0 56 42.5 95.5t105.5 39.5q56 0 163 -53t158 -53q52 0 72 63q11 37 31 37q30 -2 30 -35q0 -57 -43 -96t-106 -39q-57 0 -163.5 53t-156.5 53q-51 0 -71 -65q-10 -35 -31 -35q-20 0 -25.5 9t-5.5 26z" />
<glyph unicode="&#x2000;" horiz-adv-x="944" />
<glyph unicode="&#x2001;" horiz-adv-x="1888" />
<glyph unicode="&#x2002;" horiz-adv-x="944" />
<glyph unicode="&#x2003;" horiz-adv-x="1888" />
<glyph unicode="&#x2004;" horiz-adv-x="629" />
<glyph unicode="&#x2005;" horiz-adv-x="472" />
<glyph unicode="&#x2006;" horiz-adv-x="314" />
<glyph unicode="&#x2007;" horiz-adv-x="314" />
<glyph unicode="&#x2008;" horiz-adv-x="236" />
<glyph unicode="&#x2009;" horiz-adv-x="377" />
<glyph unicode="&#x200a;" horiz-adv-x="104" />
<glyph unicode="&#x2010;" horiz-adv-x="825" d="M102 514l7 37q3 19 10 25t24 6h541q18 0 24 -6.5t3 -24.5l-6 -37q-3 -17 -10.5 -24t-24.5 -7h-541q-17 0 -23.5 7t-3.5 24z" />
<glyph unicode="&#x2011;" horiz-adv-x="825" d="M102 514l7 37q3 19 10 25t24 6h541q18 0 24 -6.5t3 -24.5l-6 -37q-3 -17 -10.5 -24t-24.5 -7h-541q-17 0 -23.5 7t-3.5 24z" />
<glyph unicode="&#x2012;" horiz-adv-x="825" d="M102 514l7 37q3 19 10 25t24 6h541q18 0 24 -6.5t3 -24.5l-6 -37q-3 -17 -10.5 -24t-24.5 -7h-541q-17 0 -23.5 7t-3.5 24z" />
<glyph unicode="&#x2013;" horiz-adv-x="987" d="M-2 506l6 43q3 19 10.5 25t26.5 6h922q19 0 25 -6.5t3 -24.5l-8 -45q-1 -17 -9.5 -24t-27.5 -7h-921q-19 0 -24.5 7t-2.5 26z" />
<glyph unicode="&#x2014;" horiz-adv-x="1705" d="M-2 506l6 43q3 19 10.5 25t26.5 6h1640q19 0 25.5 -6.5t3.5 -24.5l-8 -45q-1 -17 -9.5 -24t-27.5 -7h-1640q-19 0 -24.5 7t-2.5 26z" />
<glyph unicode="&#x2018;" horiz-adv-x="497" d="M141 1163l174 230q34 53 64 53q31 0 31 -31q0 -17 -21 -57l-104 -199q-8 -18 -16 -24.5t-25 -6.5h-90q-40 0 -13 35z" />
<glyph unicode="&#x2019;" horiz-adv-x="497" d="M113 1159q0 19 20 58l105 198q13 31 43 31h88q39 0 12 -35l-174 -229q-35 -54 -62 -54q-15 0 -23.5 8.5t-8.5 22.5z" />
<glyph unicode="&#x201a;" horiz-adv-x="526" d="M113 -115q0 17 18 58l105 198q13 31 43 31h88q39 0 12 -35l-174 -229q-34 -53 -62 -53q-30 0 -30 30z" />
<glyph unicode="&#x201c;" horiz-adv-x="786" d="M141 1163l174 230q34 53 64 53q31 0 31 -31q0 -17 -21 -57l-104 -199q-8 -18 -16 -24.5t-25 -6.5h-90q-40 0 -13 35zM408 1163l174 230q34 53 63 53q31 0 31 -31q0 -17 -21 -57l-104 -199q-8 -18 -16 -24.5t-25 -6.5h-90q-39 0 -12 35z" />
<glyph unicode="&#x201d;" horiz-adv-x="786" d="M113 1159q0 19 20 58l105 198q13 31 43 31h88q39 0 12 -35l-174 -229q-35 -54 -62 -54q-15 0 -23.5 8.5t-8.5 22.5zM379 1159q0 19 20 58l105 198q13 31 43 31h88q39 0 12 -35l-174 -229q-35 -54 -61 -54q-15 0 -24 8.5t-9 22.5z" />
<glyph unicode="&#x201e;" horiz-adv-x="761" d="M76.5 -110.5q1.5 17.5 19.5 53.5l105 198q13 31 43 31h88q39 0 12 -35l-174 -229q-45 -68 -80 -47q-15 11 -13.5 28.5zM342.5 -110.5q1.5 17.5 19.5 53.5l105 198q13 31 43 31h88q39 0 12 -35l-174 -229q-45 -68 -80 -47q-15 11 -13.5 28.5z" />
<glyph unicode="&#x2022;" horiz-adv-x="1050" d="M143 692q0 159 112 271t269 112q159 0 271 -112t112 -271q0 -156 -112.5 -268.5t-270.5 -112.5q-156 0 -268.5 112.5t-112.5 268.5z" />
<glyph unicode="&#x2026;" horiz-adv-x="1462" d="M164 31l18 106q3 18 11 24.5t26 6.5h86q17 0 23.5 -7t3.5 -24l-19 -106q-3 -19 -10 -25t-24 -6h-86q-19 0 -25.5 6.5t-3.5 24.5zM629 31l18 106q3 18 11 24.5t26 6.5h86q17 0 23.5 -7t3.5 -24l-19 -106q-3 -18 -10 -24.5t-25 -6.5h-86q-19 0 -25 6.5t-3 24.5zM1094 31 l18 106q3 18 11 24.5t26 6.5h86q17 0 23.5 -7t3.5 -24l-19 -106q-3 -18 -10 -24.5t-25 -6.5h-86q-19 0 -25 6.5t-3 24.5z" />
<glyph unicode="&#x202f;" horiz-adv-x="377" />
<glyph unicode="&#x2039;" horiz-adv-x="690" d="M164 500l260 387q32 49 63 49q16 0 27.5 -12.5t11.5 -26.5q0 -18 -24 -61l-207 -336l207 -334q24 -43 24 -62q0 -17 -12.5 -27.5t-28.5 -10.5q-31 0 -61 47z" />
<glyph unicode="&#x203a;" horiz-adv-x="688" d="M162 104q0 19 24 62l207 334l-207 336q-24 43 -24 61q0 17 12.5 28t28.5 11q31 0 61 -49l260 -387l-260 -387q-30 -47 -61 -47q-17 0 -29 11.5t-12 26.5z" />
<glyph unicode="&#x205f;" horiz-adv-x="472" />
<glyph unicode="&#x20ac;" horiz-adv-x="1116" d="M-4 590l6 22q5 19 10 24t23 5h96l10 80l19 96h-97q-19 0 -24.5 6.5t-1.5 24.5l6 22q5 19 11 25t24 6h104q77 263 225.5 422.5t333.5 159.5q90 0 167 -43t128 -121q23 -38 23 -57t-14.5 -31t-32.5 -12q-32 0 -58 38q-89 123 -217 123q-102 0 -189 -66t-145.5 -171 t-97.5 -242h420q19 0 24.5 -6t2.5 -25l-4 -22q-6 -31 -37 -31h-428l-31 -176h432q18 0 22.5 -6.5t2.5 -24.5l-2 -20q-2 -18 -9.5 -24.5t-27.5 -6.5h-422q0 -9 -1 -28.5t-1 -28.5q0 -129 26 -226t89.5 -159t160.5 -62q100 0 188 63.5t156 172.5q20 31 34.5 45t31.5 14 q19 0 32 -13t13 -30t-21 -57q-91 -143 -197.5 -217t-244.5 -74q-122 0 -211 71.5t-133.5 197t-44.5 290.5v41h-102q-19 0 -25 7t-2 24z" />
<glyph unicode="&#x2122;" horiz-adv-x="931" d="M33 1356l14 82q0 8 8 8h320q8 0 8 -8l-14 -82q-4 -25 -21 -25q-16 0 -12 25l8 45q0 10 -6 10h-96q-13 0 -13 -10l-53 -332q-2 -10 8 -10h35q23 0 23 -15q0 -9 -8.5 -14.5t-20.5 -5.5h-129q-23 0 -23 16q0 19 27 19h37q7 0 10 10l53 332q0 10 -6 10h-96q-12 0 -12 -10 l-8 -45q-4 -25 -21 -25q-16 0 -12 25zM371 1040q0 19 24 19h23q8 0 10 10l53 332q0 10 -6 10h-22q-21 0 -21 14q0 9 7 15t18 6h84q5 0 10 -8l80 -221h2l147 221q5 8 13 8h81q9 0 15 -5t6 -11q0 -19 -27 -19h-20q-12 0 -12 -10l-54 -332q-2 -10 9 -10h20q23 0 23 -15 q0 -20 -25 -20h-117q-22 0 -22 16q0 19 26 19h37q9 0 12 10l54 328h-2l-150 -217q-6 -9 -14 -9h-21q-8 0 -8 9l-82 221h-2l-53 -332q-3 -10 6 -10h39q20 0 20 -15q0 -20 -24 -20h-117q-9 0 -14.5 5t-5.5 11z" />
<glyph unicode="&#x25fc;" horiz-adv-x="1024" d="M0 0v1024h1024v-1024h-1024z" />
</font>
</defs>
</svg>
